<svg width="17.999939" height="13.957489" viewBox="0 0 17.9999 13.9575" fill="none" xmlns="http://www.w3.org/2000/svg" xmlns:xlink="http://www.w3.org/1999/xlink">
	<defs/>
	<path id="Vector" d="M17.79 6.34C17.51 5.9 17.03 5.64 16.49 5.64L4.55 5.64C3.96 5.64 3.42 5.97 3.18 6.49L0.03 13.11C0.14 13.59 0.6 13.95 1.14 13.95L13.84 13.95C14.1 13.95 14.36 13.88 14.59 13.74C14.82 13.6 15 13.4 15.12 13.16L17.85 7.69C18.06 7.26 18.04 6.75 17.79 6.34Z" fill="#FFFFFF" fill-opacity="1.000000" fill-rule="nonzero"/>
	<path id="Vector" d="M2.54 5.47C2.78 4.95 3.32 4.62 3.91 4.62L15.15 4.62L15.15 3.18C15.15 2.59 14.65 2.1 14.04 2.1L7.48 2.1C7.47 2.1 7.47 2.1 7.47 2.1L6.29 0.46C6.08 0.17 5.74 0 5.37 0L1.11 0C0.5 0 0 0.48 0 1.07L0 10.8L2.54 5.47Z" fill="#FFFFFF" fill-opacity="1.000000" fill-rule="nonzero"/>
</svg>
