<svg width="93" height="68" viewBox="0 0 93 68" fill="none" xmlns="http://www.w3.org/2000/svg">
<path d="M69.5556 55.574H91.7823V43.8822C91.7823 37.7318 86.8067 32.7456 80.6689 32.7456C74.5312 32.7456 69.5554 37.7316 69.5554 43.8822V55.574H69.5556Z" fill="#EC407A"/>
<path d="M79.2402 32.8401C79.7139 32.7782 80.1912 32.7466 80.6689 32.7456C86.8066 32.7456 91.7824 37.7153 91.7824 43.8455V55.574H88.9247V43.8455C88.9247 38.1991 84.7025 33.5409 79.2402 32.8401Z" fill="#D63C77"/>
<path d="M69.5556 55.574H91.7823V43.8822C91.7823 37.7318 86.8067 32.7456 80.6689 32.7456C74.5312 32.7456 69.5554 37.7316 69.5554 43.8822V55.574H69.5556Z" stroke="#333333" stroke-width="2" stroke-miterlimit="10" stroke-linecap="round" stroke-linejoin="round"/>
<path d="M86.7669 46.3242H91.7823V55.574H86.7669V46.3242Z" fill="#FDD2B5"/>
<path d="M89.0834 46.3242H91.7823V55.574H89.0834V46.3242Z" fill="#F9B995"/>
<path d="M86.7669 46.3242H91.7823V55.574H86.7669V46.3242Z" stroke="#333333" stroke-width="2" stroke-miterlimit="10" stroke-linecap="round" stroke-linejoin="round"/>
<path d="M69.5556 46.3242H74.571V55.574H69.5556V46.3242Z" fill="#FDD2B5"/>
<path d="M71.8721 46.3242H74.571V55.574H71.8721V46.3242Z" fill="#F9B995"/>
<path d="M69.5556 46.3242H74.571V55.574H69.5556V46.3242Z" stroke="#333333" stroke-width="2" stroke-miterlimit="10" stroke-linecap="round" stroke-linejoin="round"/>
<path d="M80.4245 38.4896H80.9136C82.5322 38.4896 83.8443 37.1748 83.8443 35.5528V28.1445H77.4938V35.5528C77.4936 37.1746 78.8057 38.4896 80.4245 38.4896Z" fill="#FDD2B5"/>
<path d="M81.3041 35.3182V28.1443H83.8443V35.3182C83.8443 37.0696 82.4226 38.4896 80.6691 38.4896C80.232 38.4897 79.7996 38.3992 79.399 38.2239C80.5199 37.7342 81.3041 36.6182 81.3041 35.3182Z" fill="#F9B995"/>
<path d="M80.4245 38.4896H80.9136C82.5322 38.4896 83.8443 37.1748 83.8443 35.5528V28.1445H77.4938V35.5528C77.4936 37.1746 78.8057 38.4896 80.4245 38.4896Z" stroke="#333333" stroke-width="2" stroke-miterlimit="10" stroke-linecap="round" stroke-linejoin="round"/>
<path d="M80.6689 32.7454C85.3679 32.7454 89.1772 28.9454 89.1772 24.2577C89.1772 19.5701 85.3679 15.77 80.6689 15.77C75.9699 15.77 72.1606 19.5701 72.1606 24.2577C72.1606 28.9454 75.9699 32.7454 80.6689 32.7454Z" fill="#FDD2B5" stroke="#333333" stroke-width="2" stroke-miterlimit="10" stroke-linecap="round" stroke-linejoin="round"/>
<path d="M80.6689 15.77C79.3463 15.7686 78.0415 16.0765 76.8585 16.6692C78.6214 21.2748 83.751 23.6205 88.3912 21.9429L88.8109 21.7912C87.7517 18.3067 84.5077 15.77 80.6689 15.77Z" fill="#FBAB68"/>
<path d="M78.7032 15.9995C78.0646 16.1506 77.4457 16.3754 76.8587 16.6692C78.6216 21.2747 83.7513 23.6204 88.3914 21.9429L88.8111 21.7912C88.7354 21.544 88.6485 21.3005 88.5504 21.0613C84.5379 21.8096 80.4573 19.7569 78.7032 15.9995Z" fill="#EA8E49"/>
<path d="M80.6689 15.77C79.3463 15.7686 78.0415 16.0765 76.8585 16.6692C78.6214 21.2748 83.751 23.6205 88.3912 21.9429L88.8109 21.7912C87.7517 18.3067 84.5077 15.77 80.6689 15.77Z" stroke="#333333" stroke-width="2" stroke-miterlimit="10" stroke-linecap="round" stroke-linejoin="round"/>
<path d="M73.1701 55.574H50.9434V43.8822C50.9434 37.7318 55.919 32.7456 62.0569 32.7456C68.1945 32.7456 73.1703 37.7316 73.1703 43.8822V55.574H73.1701Z" fill="#9CCC65"/>
<path d="M63.4856 32.8401C63.0119 32.7782 62.5346 32.7466 62.0569 32.7456C55.9192 32.7456 50.9434 37.7153 50.9434 43.8455V55.574H53.8012V43.8455C53.8012 38.1991 58.0233 33.5409 63.4856 32.8401Z" fill="#88AD57"/>
<path d="M73.1701 55.574H50.9434V43.8822C50.9434 37.7318 55.919 32.7456 62.0569 32.7456C68.1945 32.7456 73.1703 37.7316 73.1703 43.8822V55.574H73.1701Z" stroke="#333333" stroke-width="2" stroke-miterlimit="10" stroke-linecap="round" stroke-linejoin="round"/>
<path d="M50.9434 46.3242H55.9588V55.574H50.9434V46.3242Z" fill="#FDD2B5"/>
<path d="M50.9434 46.3242H53.6423V55.574H50.9434V46.3242Z" fill="#F9B995"/>
<path d="M50.9434 46.3242H55.9588V55.574H50.9434V46.3242Z" stroke="#333333" stroke-width="2" stroke-miterlimit="10" stroke-linecap="round" stroke-linejoin="round"/>
<path d="M68.1548 46.3242H73.1702V55.574H68.1548V46.3242Z" fill="#FDD2B5"/>
<path d="M68.1548 46.3242H70.8537V55.574H68.1548V46.3242Z" fill="#F9B995"/>
<path d="M68.1548 46.3242H73.1702V55.574H68.1548V46.3242Z" stroke="#333333" stroke-width="2" stroke-miterlimit="10" stroke-linecap="round" stroke-linejoin="round"/>
<path d="M61.8123 38.4896H62.3013C63.9199 38.4896 65.232 37.1748 65.232 35.5528V28.1445H58.8816V35.5528C58.8816 37.1746 60.1937 38.4896 61.8123 38.4896Z" fill="#FDD2B5"/>
<path d="M62.6918 35.3182V28.1443H65.2321V35.3182C65.2321 37.0696 63.8104 38.4896 62.0569 38.4896C61.6049 38.4896 61.176 38.3939 60.7867 38.2239C61.9078 37.7342 62.6918 36.6182 62.6918 35.3182Z" fill="#F9B995"/>
<path d="M61.8123 38.4896H62.3013C63.9199 38.4896 65.232 37.1748 65.232 35.5528V28.1445H58.8816V35.5528C58.8816 37.1746 60.1937 38.4896 61.8123 38.4896Z" stroke="#333333" stroke-width="2" stroke-miterlimit="10" stroke-linecap="round" stroke-linejoin="round"/>
<path d="M62.0569 32.7454C66.7559 32.7454 70.5652 28.9454 70.5652 24.2577C70.5652 19.5701 66.7559 15.77 62.0569 15.77C57.3579 15.77 53.5486 19.5701 53.5486 24.2577C53.5486 28.9454 57.3579 32.7454 62.0569 32.7454Z" fill="#FDD2B5" stroke="#333333" stroke-width="2" stroke-miterlimit="10" stroke-linecap="round" stroke-linejoin="round"/>
<path d="M62.0568 15.77C63.3795 15.7686 64.6842 16.0765 65.8672 16.6692C64.1043 21.2748 58.9746 23.6205 54.3345 21.9429L53.9149 21.7912C54.974 18.3067 58.218 15.77 62.0568 15.77Z" fill="#FBAB68"/>
<path d="M64.0225 15.9995C64.661 16.1506 65.28 16.3754 65.867 16.6692C64.104 21.2747 58.9743 23.6204 54.3343 21.9429L53.9146 21.7912C53.9903 21.544 54.0772 21.3005 54.1752 21.0613C58.1878 21.8096 62.2684 19.7569 64.0225 15.9995Z" fill="#EA8E49"/>
<path d="M62.0568 15.77C63.3795 15.7686 64.6842 16.0765 65.8672 16.6692C64.1043 21.2748 58.9746 23.6205 54.3345 21.9429L53.9149 21.7912C54.974 18.3067 58.218 15.77 62.0568 15.77Z" stroke="#333333" stroke-width="2" stroke-miterlimit="10" stroke-linecap="round" stroke-linejoin="round"/>
<path d="M82.0472 66.9871H60.6785V53.3427C60.6785 47.4296 65.4621 42.636 71.3629 42.636C77.2636 42.636 82.0472 47.4296 82.0472 53.3427V66.9871Z" fill="#29B6F6"/>
<path d="M72.7365 42.7287C72.2811 42.668 71.8223 42.637 71.3629 42.636C65.4621 42.636 60.6785 47.5139 60.6785 53.5311V66.9871H63.4258V53.5311C63.426 47.989 67.485 43.4167 72.7365 42.7287Z" fill="#00AAE5"/>
<path d="M82.0472 66.9871H60.6785V53.3427C60.6785 47.4296 65.4621 42.636 71.3629 42.636C77.2636 42.636 82.0472 47.4296 82.0472 53.3427V66.9871Z" stroke="#333333" stroke-width="2" stroke-miterlimit="10" stroke-linecap="round" stroke-linejoin="round"/>
<path d="M60.6785 57.9292H65.5003V66.9872H60.6785V57.9292Z" fill="#FDD2B5"/>
<path d="M60.6785 57.9292H63.2732V66.9872H60.6785V57.9292Z" fill="#F9B995"/>
<path d="M60.6785 57.9292H65.5003V66.9872H60.6785V57.9292Z" stroke="#333333" stroke-width="2" stroke-miterlimit="10" stroke-linecap="round" stroke-linejoin="round"/>
<path d="M77.2254 57.9292H82.0472V66.9872H77.2254V57.9292Z" fill="#FDD2B5"/>
<path d="M77.2254 57.9292H79.8202V66.9872H77.2254V57.9292Z" fill="#F9B995"/>
<path d="M77.2254 57.9292H82.0472V66.9872H77.2254V57.9292Z" stroke="#333333" stroke-width="2" stroke-miterlimit="10" stroke-linecap="round" stroke-linejoin="round"/>
<path d="M71.4823 48.2741H71.2436C69.6236 48.2741 68.3102 46.9581 68.3102 45.3346V38.1196H74.4155V45.3346C74.4155 46.9581 73.1022 48.2741 71.4823 48.2741Z" fill="#FDD2B5"/>
<path d="M70.7524 45.1612V38.1196H68.3102V45.1612C68.3102 46.8805 69.677 48.2741 71.3628 48.2741C71.7836 48.2741 72.1997 48.1853 72.5839 48.0133C71.5062 47.5329 70.7524 46.4374 70.7524 45.1612Z" fill="#F9B995"/>
<path d="M71.4823 48.2741H71.2436C69.6236 48.2741 68.3102 46.9581 68.3102 45.3346V38.1196H74.4155V45.3346C74.4155 46.9581 73.1022 48.2741 71.4823 48.2741Z" stroke="#333333" stroke-width="2" stroke-miterlimit="10" stroke-linecap="round" stroke-linejoin="round"/>
<path d="M71.3628 28.4769C73.3017 28.4769 74.8734 26.8742 74.8734 24.8971C74.8734 22.9201 73.3017 21.3174 71.3628 21.3174C69.424 21.3174 67.8523 22.9201 67.8523 24.8971C67.8523 26.8742 69.424 28.4769 71.3628 28.4769Z" fill="#FBAB68"/>
<path d="M71.3628 21.3174C72.7345 21.3174 73.9219 22.1203 74.4994 23.2897C74.0118 23.0387 73.4714 22.908 72.9232 22.9083C70.9844 22.9083 69.4126 24.511 69.4126 26.4881C69.4126 27.0664 69.548 27.6121 69.7866 28.0955C68.6396 27.5066 67.8523 26.2959 67.8523 24.8969C67.8523 22.9201 69.424 21.3174 71.3628 21.3174Z" fill="#EA8E49"/>
<path d="M71.3628 28.4769C73.3017 28.4769 74.8734 26.8742 74.8734 24.8971C74.8734 22.9201 73.3017 21.3174 71.3628 21.3174C69.424 21.3174 67.8523 22.9201 67.8523 24.8971C67.8523 26.8742 69.424 28.4769 71.3628 28.4769Z" stroke="#333333" stroke-width="2" stroke-miterlimit="10" stroke-linecap="round" stroke-linejoin="round"/>
<path d="M71.3629 42.6358C75.8805 42.6358 79.5427 38.9059 79.5427 34.3047C79.5427 29.7036 75.8805 25.9736 71.3629 25.9736C66.8453 25.9736 63.183 29.7036 63.183 34.3047C63.183 38.9059 66.8453 42.6358 71.3629 42.6358Z" fill="#FDD2B5" stroke="#333333" stroke-width="2" stroke-miterlimit="10" stroke-linecap="round" stroke-linejoin="round"/>
<path d="M77.9538 32.6979H79.3892C78.6538 28.8658 75.3406 25.9736 71.3629 25.9736C71.3629 29.6874 74.3138 32.6979 77.9538 32.6979Z" fill="#FBAB68"/>
<path d="M71.3629 25.9736C71.3629 26.0707 71.3661 26.167 71.37 26.2631C74.3373 27.0821 76.6336 29.5599 77.2437 32.6586C77.477 32.6841 77.7137 32.6979 77.9536 32.6979H79.389C78.6538 28.8658 75.3406 25.9736 71.3629 25.9736Z" fill="#EA8E49"/>
<path d="M77.9538 32.6979H79.3892C78.6538 28.8658 75.3406 25.9736 71.3629 25.9736C71.3629 29.6874 74.3138 32.6979 77.9538 32.6979Z" stroke="#333333" stroke-width="2" stroke-miterlimit="10" stroke-linecap="round" stroke-linejoin="round"/>
<path d="M71.3629 25.9736C67.3852 25.9736 64.072 28.8658 63.3366 32.6979H64.772C68.412 32.6979 71.3629 29.6874 71.3629 25.9736Z" fill="#FBAB68"/>
<path d="M71.3517 26.3558C71.3588 26.2293 71.3631 26.102 71.3631 25.9736C67.3854 25.9736 64.0722 28.8658 63.3368 32.6979H64.7722C65.1207 32.6979 65.4625 32.6698 65.7964 32.6167C66.3967 29.6461 68.5481 27.2529 71.3517 26.3558Z" fill="#EA8E49"/>
<path d="M71.3629 25.9736C67.3852 25.9736 64.072 28.8658 63.3366 32.6979H64.772C68.412 32.6979 71.3629 29.6874 71.3629 25.9736Z" stroke="#333333" stroke-width="2" stroke-miterlimit="10" stroke-linecap="round" stroke-linejoin="round"/>
<path d="M27.3633 66.987H1.9696V52.022C1.9696 44.9952 7.65409 39.2988 14.6663 39.2988C21.6786 39.2988 27.3631 44.9952 27.3631 52.022L27.3633 66.987Z" fill="#ED4848"/>
<path d="M16.2989 39.4079C15.7576 39.3364 15.2123 39.3 14.6663 39.2988C7.65409 39.2988 1.9696 45.0364 1.9696 52.114V66.987H5.23444V52.114C5.23444 45.5951 10.0582 40.2169 16.2989 39.4079Z" fill="#CC4040"/>
<path d="M27.3633 66.987H1.9696V52.022C1.9696 44.9952 7.65409 39.2988 14.6663 39.2988C21.6786 39.2988 27.3631 44.9952 27.3631 52.022L27.3633 66.987Z" stroke="#333333" stroke-width="2" stroke-miterlimit="10" stroke-linecap="round" stroke-linejoin="round"/>
<path d="M1.9696 57.0281H7.69978V66.987H1.9696V57.0281Z" fill="#FDD2B5"/>
<path d="M1.9696 57.0281H5.05305V66.987H1.9696V57.0281Z" fill="#F9B995"/>
<path d="M1.9696 57.0281H7.69978V66.987H1.9696V57.0281Z" stroke="#333333" stroke-width="2" stroke-miterlimit="10" stroke-linecap="round" stroke-linejoin="round"/>
<path d="M21.6331 57.0281H27.3632V66.987H21.6331V57.0281Z" fill="#FDD2B5"/>
<path d="M21.6331 57.0281H24.7165V66.987H21.6331V57.0281Z" fill="#F9B995"/>
<path d="M21.6331 57.0281H27.3632V66.987H21.6331V57.0281Z" stroke="#333333" stroke-width="2" stroke-miterlimit="10" stroke-linecap="round" stroke-linejoin="round"/>
<path d="M14.8228 45.9302H14.5098C12.5928 45.9302 11.0387 44.3729 11.0387 42.4518V33.9863H18.2939V42.4518C18.2941 44.3729 16.7398 45.9302 14.8228 45.9302Z" fill="#FDD2B5"/>
<path d="M13.9407 42.2687V33.9863H11.0387V42.2687C11.0387 44.2907 12.6628 45.9302 14.6663 45.9302C15.1826 45.9302 15.6727 45.8198 16.1174 45.6234C15.4689 45.3362 14.9178 44.8661 14.5313 44.2704C14.1448 43.6747 13.9396 42.9792 13.9407 42.2687Z" fill="#F9B995"/>
<path d="M14.8228 45.9302H14.5098C12.5928 45.9302 11.0387 44.3729 11.0387 42.4518V33.9863H18.2939V42.4518C18.2941 44.3729 16.7398 45.9302 14.8228 45.9302Z" stroke="#333333" stroke-width="2" stroke-miterlimit="10" stroke-linecap="round" stroke-linejoin="round"/>
<path d="M14.6662 39.299C20.0347 39.299 24.3868 34.9116 24.3868 29.4996C24.3868 24.0875 20.0347 19.7002 14.6662 19.7002C9.29766 19.7002 4.94562 24.0875 4.94562 29.4996C4.94562 34.9116 9.29766 39.299 14.6662 39.299Z" fill="#FDD2B5" stroke="#333333" stroke-width="2" stroke-miterlimit="10" stroke-linecap="round" stroke-linejoin="round"/>
<path d="M22.4987 27.6096H24.2043C23.3303 23.1023 19.3933 19.7002 14.6663 19.7002C14.6663 24.0685 18.1731 27.6096 22.4987 27.6096Z" fill="#FBAB68"/>
<path d="M14.6663 19.7002C14.6663 19.8144 14.67 19.9276 14.6748 20.0407C18.201 21.004 20.9299 23.9184 21.6549 27.5632C21.9321 27.5933 22.2133 27.6096 22.4985 27.6096H24.2041C23.3305 23.1021 19.3933 19.7002 14.6663 19.7002Z" fill="#EA8E49"/>
<path d="M22.4987 27.6096H24.2043C23.3303 23.1023 19.3933 19.7002 14.6663 19.7002C14.6663 24.0685 18.1731 27.6096 22.4987 27.6096Z" stroke="#333333" stroke-width="2" stroke-miterlimit="10" stroke-linecap="round" stroke-linejoin="round"/>
<path d="M14.6663 19.7002C9.93936 19.7002 6.00211 23.1021 5.1283 27.6096H6.83395C11.1597 27.6094 14.6663 24.0683 14.6663 19.7002Z" fill="#FBAB68"/>
<path d="M14.653 20.1498C14.6612 20.0008 14.6663 19.8511 14.6663 19.7002C9.93936 19.7002 6.00211 23.1021 5.1283 27.6096H6.83395C7.24792 27.6096 7.65443 27.5766 8.05094 27.5141C8.76473 24.0198 11.3215 21.2048 14.653 20.1498Z" fill="#EA8E49"/>
<path d="M14.6663 19.7002C9.93936 19.7002 6.00211 23.1021 5.1283 27.6096H6.83395C11.1597 27.6094 14.6663 24.0683 14.6663 19.7002Z" stroke="#333333" stroke-width="2" stroke-miterlimit="10" stroke-linecap="round" stroke-linejoin="round"/>
<path d="M27.4556 39.4775H46.6865M27.4556 39.4775L30.9987 42.3216M27.4556 39.4775L30.9987 36.4841" stroke="#333333" stroke-width="2" stroke-miterlimit="10" stroke-linecap="round" stroke-linejoin="round"/>
<path d="M7.85254 11.155C9.99096 11.155 11.7245 9.41327 11.7245 7.26475C11.7245 5.11623 9.99096 3.37451 7.85254 3.37451C5.71412 3.37451 3.98059 5.11623 3.98059 7.26475C3.98059 9.41327 5.71412 11.155 7.85254 11.155Z" fill="#FFD766" stroke="#333333" stroke-width="2" stroke-miterlimit="10" stroke-linecap="round" stroke-linejoin="round"/>
<path d="M7.85254 3.37424V1.35376V3.37424ZM5.11462 4.51378L3.69272 3.08498L5.11462 4.51378ZM3.98059 7.26468H1.9696H3.98059ZM5.11462 10.0154L3.69272 11.4442L5.11462 10.0154ZM7.85254 11.1549V13.1754V11.1549ZM10.5905 10.0154L12.0124 11.4442L10.5905 10.0154ZM11.7245 7.26468H13.7355H11.7245ZM10.5905 4.51378L12.0124 3.08498L10.5905 4.51378Z" fill="white"/>
<path d="M7.85254 3.37424V1.35376M5.11462 4.51378L3.69272 3.08498M3.98059 7.26468H1.9696M5.11462 10.0154L3.69272 11.4442M7.85254 11.1549V13.1754M10.5905 10.0154L12.0124 11.4442M11.7245 7.26468H13.7355M10.5905 4.51378L12.0124 3.08498" stroke="#333333" stroke-width="2" stroke-miterlimit="10" stroke-linecap="round" stroke-linejoin="round"/>
<path d="M32.4135 21.0822C34.5519 21.0822 36.2855 19.3405 36.2855 17.192C36.2855 15.0435 34.5519 13.3018 32.4135 13.3018C30.2751 13.3018 28.5416 15.0435 28.5416 17.192C28.5416 19.3405 30.2751 21.0822 32.4135 21.0822Z" fill="#FFD766" stroke="#333333" stroke-width="2" stroke-miterlimit="10" stroke-linecap="round" stroke-linejoin="round"/>
<path d="M32.1059 18.044C32.6941 18.044 33.1709 17.565 33.1709 16.974C33.1709 16.3831 32.6941 15.9041 32.1059 15.9041C31.5177 15.9041 31.0409 16.3831 31.0409 16.974C31.0409 17.565 31.5177 18.044 32.1059 18.044Z" fill="#333333"/>
<path d="M32.4135 13.3017V11.2812V13.3017ZM29.6756 14.4411L28.2535 13.0125L29.6756 14.4411ZM28.5416 17.192H26.5306H28.5416ZM29.6756 19.9429L28.2535 21.3717L29.6756 19.9429ZM32.4135 21.0824V23.1029V21.0824ZM35.1512 19.9429L36.5733 21.3717L35.1512 19.9429ZM36.2853 17.192H38.2964H36.2853ZM35.1512 14.4411L36.5733 13.0125L35.1512 14.4411Z" fill="white"/>
<path d="M32.4135 13.3017V11.2812M29.6756 14.4411L28.2535 13.0125M28.5416 17.192H26.5306M29.6756 19.9429L28.2535 21.3717M32.4135 21.0824V23.1029M35.1512 19.9429L36.5733 21.3717M36.2853 17.192H38.2964M35.1512 14.4411L36.5733 13.0125" stroke="#333333" stroke-width="2" stroke-miterlimit="10" stroke-linecap="round" stroke-linejoin="round"/>
</svg>
