<svg width="80" height="80" viewBox="0 0 80 80" fill="none" xmlns="http://www.w3.org/2000/svg">
<g clip-path="url(#clip0_98_34)">
<path d="M43.525 83.8372L28.5714 75.3506L13.6178 83.8372V43.908H43.525V83.8372Z" fill="#3F5EAB"/>
<path d="M53.8611 30.2177L51.6218 29.5608C51.1263 27.8524 50.4461 26.2226 49.6041 24.6943L50.7243 22.6444C51.7049 20.8494 50.9166 18.0632 48.8408 15.9874C46.765 13.9115 43.9788 13.1232 42.1838 14.104L40.1339 15.224C38.6057 14.3819 36.9758 13.7018 35.2674 13.2063L34.6105 10.9669C34.0347 9.00412 31.5071 7.59131 28.5714 7.59131C25.6357 7.59131 23.1082 9.00412 22.5324 10.9669L21.8755 13.2063C20.1671 13.7018 18.5372 14.3819 17.0089 15.224L14.9591 14.104C13.1641 13.1232 10.3778 13.9115 8.30207 15.9874C6.22628 18.0633 5.438 20.8496 6.41878 22.6444L7.53878 24.6943C6.69675 26.2226 6.0166 27.8524 5.52113 29.5608L3.28175 30.2177C1.31894 30.7935 -0.0938721 33.321 -0.0938721 36.2568C-0.0938721 39.1924 1.31894 41.7201 3.28175 42.2957L5.52113 42.9526C6.0166 44.6612 6.69675 46.2907 7.53878 47.8191L6.41878 49.869C5.438 51.664 6.22628 54.4502 8.30207 56.526V56.5262C10.378 58.6019 13.1643 59.3902 14.9591 58.4096L17.0089 57.2894C18.5372 58.1315 20.1671 58.8115 21.8755 59.3071L22.5324 61.5465C23.1082 63.5093 25.6357 64.9221 28.5714 64.9221C31.5071 64.9221 34.0347 63.5093 34.6103 61.5465L35.2672 59.3071C36.9758 58.8115 38.6055 58.1315 40.1338 57.2894L42.1836 58.4096C43.9786 59.3902 46.7649 58.6019 48.8407 56.5262V56.526C50.9164 54.4502 51.7047 51.664 50.7241 49.869L49.6039 47.8191C50.446 46.2908 51.1261 44.6612 51.6216 42.9526L53.861 42.2957C55.8238 41.7199 57.2366 39.1924 57.2366 36.2568C57.2368 33.321 55.8239 30.7933 53.8611 30.2177Z" fill="url(#paint0_linear_98_34)"/>
<path d="M48.0334 31.6094L46.3102 31.1039C45.9289 29.7891 45.4055 28.535 44.7573 27.3587L45.6194 25.7812C46.3742 24.4 45.7675 22.2558 44.1702 20.6583C42.5725 19.0608 40.4284 18.4542 39.047 19.2089L37.4695 20.0709C36.2934 19.423 35.0392 18.8995 33.7244 18.5183L33.2189 16.795C32.7756 15.2842 30.8306 14.197 28.5714 14.197C26.3122 14.197 24.367 15.2842 23.9241 16.7947L23.4186 18.518C22.1038 18.8992 20.8497 19.4226 19.6734 20.0706L18.0959 19.2086C16.7145 18.4539 14.5703 19.0605 12.9728 20.658C11.3753 22.2555 10.7688 24.3997 11.5234 25.7809L12.3853 27.3584C11.7375 28.5345 11.2139 29.7887 10.8327 31.1036L9.10937 31.6091C7.59891 32.052 6.51172 33.9972 6.51172 36.2564C6.51172 38.5156 7.59891 40.4608 9.10937 40.9037L10.8327 41.4092C11.2139 42.7241 11.7375 43.9781 12.3853 45.1544L11.5234 46.7319C10.7686 48.1133 11.3753 50.2573 12.9728 51.855C14.5703 53.4525 16.7145 54.0589 18.0959 53.3042L19.6734 52.4422C20.8495 53.0901 22.1038 53.6136 23.4186 53.9948L23.9241 55.7183C24.367 57.2287 26.3122 58.3159 28.5714 58.3159C30.8306 58.3159 32.7756 57.2287 33.2188 55.7183L33.7242 53.9948C35.0391 53.6137 36.2931 53.0903 37.4694 52.4422L39.0469 53.3042C40.4283 54.0589 42.5723 53.4523 44.17 51.855C45.7675 50.2573 46.3741 48.1133 45.6192 46.7319L44.7572 45.1544C45.4052 43.9783 45.9286 42.7241 46.31 41.4092L48.0333 40.9037C49.5438 40.4608 50.6309 38.5156 50.6309 36.2564C50.6311 33.9975 49.5439 32.0523 48.0334 31.6094Z" fill="url(#paint1_linear_98_34)"/>
<path d="M28.5714 51.2104C36.83 51.2104 43.525 44.5155 43.525 36.2568C43.525 27.9982 36.83 21.3032 28.5714 21.3032C20.3128 21.3032 13.6178 27.9982 13.6178 36.2568C13.6178 44.5155 20.3128 51.2104 28.5714 51.2104Z" fill="url(#paint2_linear_98_34)"/>
</g>
<defs>
<linearGradient id="paint0_linear_98_34" x1="8.30205" y1="56.5262" x2="48.841" y2="15.9873" gradientUnits="userSpaceOnUse">
<stop stop-color="#00FFFF"/>
<stop offset="1" stop-color="#FF7BAC"/>
</linearGradient>
<linearGradient id="paint1_linear_98_34" x1="28.5713" y1="14.197" x2="28.5713" y2="58.3164" gradientUnits="userSpaceOnUse">
<stop stop-color="white"/>
<stop offset="0.3279" stop-color="#FCFCFC"/>
<stop offset="0.5302" stop-color="#F4F4F4"/>
<stop offset="0.6984" stop-color="#E5E5E5"/>
<stop offset="0.848" stop-color="#D1D1D1"/>
<stop offset="0.9839" stop-color="#B7B7B7"/>
<stop offset="1" stop-color="#B3B3B3"/>
</linearGradient>
<linearGradient id="paint2_linear_98_34" x1="17.9977" y1="46.8305" x2="39.1452" y2="25.683" gradientUnits="userSpaceOnUse">
<stop stop-color="#00FFFF"/>
<stop offset="1" stop-color="#FF7BAC"/>
</linearGradient>
<clipPath id="clip0_98_34">
<rect width="80" height="80" fill="white"/>
</clipPath>
</defs>
</svg>
