<svg xmlns="http://www.w3.org/2000/svg" width="226" height="57" viewBox="0 0 226 57" fill="none"><path fill-rule="evenodd" clip-rule="evenodd" d="M44.5037 4.69312L44.5804 4.74406L44.5812 4.74333C44.6329 4.77766 44.6839 4.8127 44.735 4.84666L44.812 4.89833C44.8888 4.94999 44.9651 5.00238 45.0411 5.05477L45.1174 5.10752L45.1934 5.16026L45.4202 5.32032L45.4955 5.37415C52.6019 10.4763 57.2208 18.7336 57.2208 28.0545C57.2208 43.5484 44.4604 56.1087 28.7196 56.1087C25.2165 56.1087 21.862 55.4855 18.762 54.3478L28.2465 49.0495C28.4036 49.0531 28.5614 49.0552 28.7196 49.0552C40.5029 49.0552 50.0549 39.653 50.0549 28.0545C50.0549 21.6488 47.141 15.9148 42.5466 12.0627L27.2158 20.6271V23.5214L23.1023 22.8028L18.9877 22.0849L23.1023 16.7703L27.2158 11.4561V14.35L44.5037 4.69312Z" fill="#0D2E43"></path><path fill-rule="evenodd" clip-rule="evenodd" d="M16.947 37.5321L40.4924 24.3793V18.5767L16.947 31.7294V37.5321Z" fill="#0D2E43"></path><path fill-rule="evenodd" clip-rule="evenodd" d="M28.7196 0C32.2242 0 35.5801 0.623948 38.6813 1.76274L29.1997 7.05925C29.0397 7.056 28.8796 7.05347 28.7196 7.05347C16.9359 7.05347 7.38388 16.4557 7.38388 28.0546C7.38388 36.654 12.636 44.0453 20.1546 47.2929L12.8606 51.3675C5.23629 46.333 0.218018 37.7704 0.218018 28.0546C0.218018 12.5606 12.9788 0 28.7196 0Z" fill="#0D2E43"></path><path d="M92.7998 15.4075V40.2054H87.8693V24.1222L80.7673 35.6238L80.1855 35.6473L73.1132 24.1814V40.2054H68.1467V15.4075H73.2575L80.4795 27.1158L87.6711 15.4075H92.7998Z" fill="#F7732C"></path><path d="M100.824 33.2267C101.448 35.4468 103.14 36.5567 105.899 36.5567C107.675 36.5567 109.018 35.966 109.93 34.7853L113.673 36.9111C111.897 39.438 109.282 40.7014 105.827 40.7014C102.852 40.7014 100.465 39.8159 98.6651 38.0445C96.8658 36.2731 95.9658 34.0414 95.9658 31.3491C95.9658 28.6806 96.8533 26.4543 98.6291 24.6713C100.405 22.8884 102.684 21.9971 105.467 21.9971C108.106 21.9971 110.284 22.8942 112 24.689C113.715 26.4839 114.573 28.7041 114.573 31.3491C114.573 31.9394 114.512 32.5652 114.393 33.2267H100.824ZM100.752 29.6842H109.93C109.666 28.4797 109.12 27.5823 108.292 26.9919C107.465 26.4012 106.523 26.106 105.467 26.106C104.219 26.106 103.188 26.4189 102.372 27.045C101.556 27.6708 101.017 28.5505 100.752 29.6842Z" fill="#F7732C"></path><path d="M127.661 26.8858H123.594V34.254C123.594 34.8682 123.75 35.3169 124.062 35.6001C124.374 35.8834 124.829 36.0427 125.429 36.0785C126.029 36.1139 126.773 36.1081 127.661 36.0608V40.2055C124.47 40.5599 122.221 40.2644 120.913 39.3196C119.605 38.3752 118.951 36.6865 118.951 34.254V26.8858H115.82V22.4929H118.951V18.915L123.594 17.5334V22.4929H127.661V26.8858Z" fill="#F7732C"></path><path d="M134.415 33.2267C135.038 35.4468 136.73 36.5567 139.489 36.5567C141.265 36.5567 142.608 35.966 143.52 34.7853L147.263 36.9111C145.488 39.438 142.872 40.7014 139.417 40.7014C136.442 40.7014 134.055 39.8159 132.255 38.0445C130.456 36.2731 129.556 34.0414 129.556 31.3491C129.556 28.6806 130.444 26.4543 132.219 24.6713C133.995 22.8884 136.274 21.9971 139.057 21.9971C141.697 21.9971 143.874 22.8942 145.59 24.689C147.305 26.4839 148.163 28.7041 148.163 31.3491C148.163 31.9394 148.103 32.5652 147.983 33.2267H134.415ZM134.343 29.6842H143.52C143.256 28.4797 142.711 27.5823 141.882 26.9919C141.055 26.4012 140.113 26.106 139.057 26.106C137.81 26.106 136.778 26.4189 135.962 27.045C135.147 27.6708 134.607 28.5505 134.343 29.6842Z" fill="#F7732C"></path><path d="M166.686 37.9914C164.838 39.7978 162.583 40.7014 159.919 40.7014C157.256 40.7014 155.007 39.7978 153.171 37.9914C151.336 36.1846 150.418 33.9706 150.418 31.3491C150.418 28.7275 151.336 26.5136 153.171 24.7067C155.007 22.8999 157.256 21.9971 159.919 21.9971C162.583 21.9971 164.838 22.8999 166.686 24.7067C168.533 26.5136 169.456 28.7275 169.456 31.3491C169.456 33.9706 168.533 36.1846 166.686 37.9914ZM156.446 34.8561C157.37 35.7774 158.528 36.2377 159.919 36.2377C161.311 36.2377 162.475 35.7774 163.41 34.8561C164.346 33.9352 164.814 32.766 164.814 31.3491C164.814 29.9321 164.346 28.763 163.41 27.842C162.475 26.9207 161.311 26.4601 159.919 26.4601C158.528 26.4601 157.37 26.9207 156.446 27.842C155.522 28.763 155.06 29.9321 155.06 31.3491C155.06 32.766 155.522 33.9352 156.446 34.8561Z" fill="#F7732C"></path><path d="M177.013 25.5391C177.445 24.4054 178.159 23.5553 179.155 22.9884C180.151 22.4219 181.26 22.1387 182.484 22.1387V27.2397C181.069 27.0743 179.803 27.3575 178.687 28.0898C177.571 28.8218 177.013 30.0383 177.013 31.7389V40.2054H172.371V22.4927H177.013V25.5391Z" fill="#F7732C"></path><path d="M191.375 35.5292H201.992V40.2054H186.408V15.4075H201.812V20.084H191.375V25.3621H200.912V29.9678H191.375V35.5292ZM209.778 40.2054H204.164L211.866 27.4818L204.56 15.4075H210.174L214.679 22.8291L219.172 15.4075H224.776C219.781 23.6756 214.78 31.9408 209.778 40.2054ZM225.218 40.2054H219.568L216.206 34.6509L219.021 29.9924L225.218 40.2054Z" fill="#0D2E43"></path><path fill-rule="evenodd" clip-rule="evenodd" d="M12.9359 51.4157C11.2831 50.3318 9.75218 49.0821 8.36694 47.6912L30.2228 35.4821V32.5881L34.337 33.3064L38.4512 34.0239L34.337 39.3388L30.2228 44.6534V41.7591L12.9359 51.4157Z" fill="#F7732C"></path></svg>