<svg width="80" height="80" viewBox="0 0 80 80" fill="none" xmlns="http://www.w3.org/2000/svg">
<path d="M38.5 71H57.7391V36.1429L64.1522 42.3673L68 38.6327L38.5 10L9 38.6327L12.8478 42.3673L19.2609 36.1429V71H38.5Z" fill="#00A8E7"/>
<path d="M66.2065 46.3623V48.8669C66.2065 49.1984 66.3398 49.5163 66.577 49.7508C66.8143 49.9852 67.1361 50.1169 67.4716 50.1169C67.8071 50.1169 68.1289 49.9852 68.3662 49.7508C68.6034 49.5163 68.7367 49.1984 68.7367 48.8669V46.3623C69.0319 46.2829 69.288 46.1005 69.4575 45.8489C69.6271 45.5973 69.6986 45.2935 69.6588 44.9937C69.619 44.694 69.4707 44.4187 69.2412 44.2187C69.0117 44.0188 68.7167 43.9078 68.4108 43.9062H66.5327C66.2265 43.9074 65.9311 44.0182 65.7012 44.2182C65.4714 44.4182 65.3228 44.6937 65.283 44.9938C65.2432 45.2938 65.3149 45.5979 65.4848 45.8497C65.6547 46.1014 65.9112 46.2837 66.2068 46.3628L66.2065 46.3623Z" fill="#F77F7F"/>
<path d="M68.7367 58.7934V56.2888C68.7367 55.9573 68.6034 55.6394 68.3661 55.4049C68.1289 55.1705 67.8071 55.0388 67.4715 55.0388C67.136 55.0388 66.8142 55.1705 66.577 55.4049C66.3397 55.6394 66.2064 55.9573 66.2064 56.2888V58.7934C65.9108 58.8724 65.6543 59.0548 65.4844 59.3066C65.3145 59.5584 65.2428 59.8625 65.2827 60.1625C65.3225 60.4626 65.4712 60.7382 65.701 60.9381C65.9309 61.1381 66.2264 61.2489 66.5327 61.2499H68.4107C68.717 61.2489 69.0125 61.1381 69.2424 60.9381C69.4722 60.7382 69.6209 60.4626 69.6607 60.1625C69.7006 59.8625 69.6289 59.5584 69.459 59.3066C69.2892 59.0548 69.0326 58.8724 68.737 58.7934H68.7367Z" fill="#F77F7F"/>
<path d="M61.1811 53.8282H63.7159C64.0515 53.8282 64.3732 53.6965 64.6105 53.462C64.8478 53.2276 64.981 52.9097 64.981 52.5782C64.981 52.2466 64.8478 51.9287 64.6105 51.6943C64.3732 51.4599 64.0515 51.3282 63.7159 51.3282H61.1811C61.1011 51.0361 60.9166 50.7826 60.6618 50.6147C60.407 50.4469 60.0992 50.3761 59.7955 50.4154C59.4919 50.4547 59.213 50.6015 59.0106 50.8286C58.8082 51.0557 58.696 51.3476 58.6949 51.6502V53.5058C58.696 53.8084 58.8082 54.1003 59.0106 54.3274C59.213 54.5545 59.4919 54.7013 59.7955 54.7406C60.0992 54.7799 60.407 54.7091 60.6618 54.5413C60.9166 54.3734 61.1011 54.1199 61.1811 53.8278V53.8282Z" fill="#F77F7F"/>
<path d="M74.9831 50.4001C74.7046 50.4004 74.434 50.4915 74.2132 50.6592C73.9924 50.8269 73.8338 51.0619 73.762 51.3278H71.2276C70.8921 51.3278 70.5703 51.4595 70.3331 51.6939C70.0958 51.9283 69.9625 52.2463 69.9625 52.5778C69.9625 52.9093 70.0958 53.2273 70.3331 53.4617C70.5703 53.6961 70.8921 53.8278 71.2276 53.8278H73.7624C73.8428 54.1195 74.0274 54.3725 74.2821 54.54C74.5367 54.7075 74.8442 54.7782 75.1476 54.7389C75.4509 54.6996 75.7296 54.553 75.9319 54.3263C76.1343 54.0995 76.2467 53.8081 76.2482 53.5058V51.6501C76.2482 51.3186 76.1149 51.0007 75.8777 50.7663C75.6404 50.5318 75.3186 50.4001 74.9831 50.4001Z" fill="#F77F7F"/>
<path d="M67.4719 56.2889C69.5462 56.2889 71.2278 54.6274 71.2278 52.5778C71.2278 50.5282 69.5462 48.8667 67.4719 48.8667C65.3975 48.8667 63.7159 50.5282 63.7159 52.5778C63.7159 54.6274 65.3975 56.2889 67.4719 56.2889Z" fill="#FD918C"/>
<path d="M64.566 57.2166L65.7105 56.0858C65.9477 55.8514 66.081 55.5335 66.081 55.2019C66.081 54.8704 65.9477 54.5525 65.7105 54.318C65.4732 54.0836 65.1514 53.9519 64.8159 53.9519C64.4804 53.9519 64.1586 54.0836 63.9213 54.318L62.7769 55.4488L62.7324 55.4049C62.4952 55.1705 62.1734 55.0388 61.8378 55.0388C61.5023 55.0388 61.1805 55.1705 60.9432 55.4049C60.706 55.6393 60.5727 55.9573 60.5727 56.2888C60.5727 56.6203 60.706 56.9383 60.9432 57.1727L62.8213 59.0283C63.0586 59.2628 63.3803 59.3945 63.7159 59.3945C64.0514 59.3945 64.3732 59.2628 64.6105 59.0283C64.8477 58.7939 64.981 58.476 64.981 58.1444C64.981 57.8129 64.8477 57.495 64.6105 57.2605L64.566 57.2166Z" fill="#E22526"/>
<path d="M61.8378 50.1169C62.004 50.1171 62.1686 50.0849 62.3221 50.0221C62.4756 49.9592 62.6151 49.867 62.7324 49.7508L62.777 49.7069L63.9213 50.8375C64.1594 51.0676 64.4798 51.1957 64.8129 51.1939C65.1459 51.192 65.4648 51.0605 65.7004 50.8278C65.9359 50.5951 66.0691 50.2801 66.071 49.951C66.0729 49.6219 65.9433 49.3053 65.7105 49.07L64.566 47.9392L64.6105 47.8952C64.8477 47.6607 64.981 47.3428 64.981 47.0113C64.981 46.6797 64.8477 46.3618 64.6105 46.1274C64.3732 45.8929 64.0514 45.7612 63.7159 45.7612C63.3804 45.7612 63.0586 45.8929 62.8213 46.1274L60.9433 47.983C60.7663 48.1578 60.6458 48.3805 60.597 48.623C60.5482 48.8655 60.5732 49.1168 60.669 49.3452C60.7648 49.5737 60.9269 49.7689 61.135 49.9062C61.343 50.0436 61.5876 50.1169 61.8378 50.1169Z" fill="#E22526"/>
<path d="M70.3773 47.9392L69.233 49.0699C68.9958 49.3044 68.8625 49.6223 68.8625 49.9539C68.8625 50.2854 68.9958 50.6033 69.233 50.8378C69.4703 51.0722 69.7921 51.2039 70.1276 51.2039C70.4632 51.2039 70.785 51.0722 71.0222 50.8378L72.1667 49.7071L72.2111 49.7509C72.3286 49.867 72.468 49.959 72.6215 50.0219C72.775 50.0847 72.9395 50.117 73.1057 50.117C73.2718 50.117 73.4363 50.0847 73.5898 50.0219C73.7433 49.959 73.8828 49.867 74.0003 49.7509C74.1178 49.6348 74.2109 49.497 74.2745 49.3453C74.3381 49.1937 74.3708 49.0311 74.3708 48.867C74.3708 48.7028 74.3381 48.5403 74.2745 48.3886C74.2109 48.237 74.1178 48.0991 74.0003 47.9831L73.0628 47.0568L73.0614 47.0551L73.0598 47.0537L72.1222 46.1274C72.0056 46.0076 71.866 45.912 71.7115 45.8462C71.557 45.7803 71.3908 45.7456 71.2226 45.744C71.0543 45.7423 70.8875 45.7739 70.7317 45.8368C70.576 45.8997 70.4345 45.9926 70.3156 46.1102C70.1967 46.2278 70.1026 46.3676 70.0391 46.5215C69.9755 46.6754 69.9436 46.8403 69.9453 47.0065C69.947 47.1727 69.9822 47.337 70.049 47.4896C70.1157 47.6422 70.2125 47.7801 70.3338 47.8953L70.3773 47.9392Z" fill="#E22526"/>
<path d="M72.2111 55.405L72.1667 55.4489L71.0221 54.3181C70.7839 54.088 70.4635 53.9601 70.1305 53.9619C69.7974 53.9638 69.4785 54.0954 69.243 54.3281C69.0075 54.5608 68.8744 54.8759 68.8726 55.205C68.8707 55.5341 69.0003 55.8507 69.2332 56.0859L70.3775 57.2167L70.3331 57.2606C70.0958 57.495 69.9625 57.813 69.9625 58.1445C69.9625 58.4761 70.0958 58.794 70.3331 59.0284C70.5703 59.2629 70.8921 59.3946 71.2277 59.3946C71.5632 59.3946 71.885 59.2629 72.1222 59.0284L74.0003 57.1728C74.2376 56.9384 74.3708 56.6204 74.3708 56.2889C74.3708 55.9574 74.2376 55.6394 74.0003 55.405C73.763 55.1706 73.4412 55.0389 73.1057 55.0389C72.7702 55.0389 72.4484 55.1706 72.2111 55.405Z" fill="#E22526"/>
<path d="M8.1697 62.4566V64.9611C8.1697 65.2926 8.30299 65.6106 8.54024 65.845C8.7775 66.0794 9.09928 66.2111 9.43481 66.2111C9.77033 66.2111 10.0921 66.0794 10.3294 65.845C10.5666 65.6106 10.6999 65.2926 10.6999 64.9611V62.4566C10.9955 62.3775 11.2521 62.1951 11.422 61.9433C11.5919 61.6915 11.6635 61.3874 11.6237 61.0874C11.5838 60.7873 11.4352 60.5118 11.2053 60.3118C10.9754 60.1118 10.6799 60.001 10.3737 60H8.49562C8.18938 60.0011 7.89394 60.1119 7.66412 60.3119C7.43431 60.5119 7.28571 60.7875 7.2459 61.0875C7.2061 61.3875 7.27779 61.6916 7.44767 61.9434C7.61755 62.1952 7.8741 62.3775 8.1697 62.4566Z" fill="#F77F7F"/>
<path d="M10.6999 74.8876V72.3831C10.6999 72.0515 10.5666 71.7336 10.3294 71.4992C10.0921 71.2648 9.77032 71.1331 9.4348 71.1331C9.09927 71.1331 8.77748 71.2648 8.54023 71.4992C8.30298 71.7336 8.16969 72.0515 8.16969 72.3831V74.8876C7.87449 74.967 7.61841 75.1494 7.44888 75.401C7.27934 75.6527 7.20784 75.9565 7.24762 76.2562C7.28739 76.5559 7.43574 76.8313 7.6652 77.0312C7.89466 77.2311 8.18967 77.3422 8.49561 77.3437H10.3737C10.6796 77.3422 10.9747 77.2313 11.2042 77.0314C11.4337 76.8314 11.5821 76.5561 11.6219 76.2564C11.6618 75.9566 11.5903 75.6528 11.4208 75.4011C11.2512 75.1494 10.9951 74.967 10.6999 74.8876Z" fill="#F77F7F"/>
<path d="M3.14392 69.9219H5.67871C6.01424 69.9219 6.33603 69.7902 6.57328 69.5558C6.81053 69.3214 6.94382 69.0034 6.94382 68.6719C6.94382 68.3404 6.81053 68.0224 6.57328 67.788C6.33603 67.5536 6.01424 67.4219 5.67871 67.4219H3.14392C3.06355 67.1302 2.87891 66.8772 2.6242 66.7097C2.36949 66.5422 2.06198 66.4715 1.75861 66.5109C1.45524 66.5502 1.17658 66.6969 0.974247 66.9236C0.77191 67.1504 0.659608 67.4419 0.658142 67.7443V69.5999C0.659683 69.9022 0.772039 70.1937 0.9744 70.4204C1.17676 70.6471 1.45542 70.7937 1.75876 70.833C2.06211 70.8723 2.36959 70.8016 2.62427 70.6341C2.87894 70.4666 3.06356 70.2136 3.14392 69.9219Z" fill="#F77F7F"/>
<path d="M16.9463 66.4941C16.6678 66.4944 16.3972 66.5855 16.1764 66.7532C15.9556 66.921 15.797 67.1561 15.7252 67.422H13.1904C12.8549 67.422 12.5331 67.5537 12.2958 67.7881C12.0586 68.0225 11.9253 68.3404 11.9253 68.672C11.9253 69.0035 12.0586 69.3214 12.2958 69.5558C12.5331 69.7903 12.8549 69.922 13.1904 69.922H15.7252C15.8052 70.214 15.9898 70.4675 16.2446 70.6354C16.4994 70.8032 16.8072 70.8741 17.1109 70.8347C17.4145 70.7954 17.6934 70.6485 17.8958 70.4214C18.0982 70.1943 18.2104 69.9024 18.2114 69.5998V67.7441C18.2114 67.4126 18.0782 67.0947 17.8409 66.8603C17.6037 66.6258 17.2819 66.4941 16.9463 66.4941Z" fill="#F77F7F"/>
<path d="M9.43465 72.3831C11.509 72.3831 13.1906 70.7216 13.1906 68.672C13.1906 66.6225 11.509 64.9609 9.43465 64.9609C7.3603 64.9609 5.67871 66.6225 5.67871 68.672C5.67871 70.7216 7.3603 72.3831 9.43465 72.3831Z" fill="#FD918C"/>
<path d="M6.52902 73.3109L7.67331 72.1801C7.91057 71.9457 8.04386 71.6277 8.04386 71.2962C8.04386 70.9646 7.91057 70.6467 7.67331 70.4123C7.43605 70.1778 7.11425 70.0461 6.77872 70.0461C6.44318 70.0461 6.12139 70.1778 5.88413 70.4123L4.73969 71.5429L4.69525 71.4991C4.45799 71.2647 4.1362 71.133 3.80066 71.133C3.46513 71.133 3.14333 71.2647 2.90607 71.4991C2.66881 71.7336 2.53552 72.0515 2.53552 72.383C2.53552 72.7146 2.66881 73.0325 2.90607 73.267L4.78412 75.1226C4.9016 75.2387 5.04107 75.3307 5.19456 75.3936C5.34806 75.4564 5.51257 75.4887 5.67871 75.4887C5.84485 75.4887 6.00936 75.4564 6.16286 75.3936C6.31635 75.3307 6.45582 75.2387 6.5733 75.1226C6.69078 75.0065 6.78397 74.8687 6.84755 74.717C6.91113 74.5654 6.94385 74.4028 6.94385 74.2387C6.94385 74.0745 6.91112 73.912 6.84755 73.7603C6.78397 73.6086 6.69078 73.4708 6.5733 73.3548L6.52902 73.3109Z" fill="#E22526"/>
<path d="M3.80068 66.2111C3.96685 66.2114 4.13143 66.1791 4.28495 66.1163C4.43847 66.0535 4.57792 65.9613 4.69526 65.845L4.73986 65.8011L5.88415 66.9318C6.12227 67.1619 6.44262 67.2899 6.77569 67.2881C7.10876 67.2863 7.42767 67.1548 7.66321 66.9221C7.89875 66.6894 8.03192 66.3743 8.03381 66.0452C8.0357 65.7161 7.90617 65.3996 7.67332 65.1643L6.52888 64.0333L6.57331 63.9894C6.81057 63.755 6.94386 63.437 6.94386 63.1055C6.94386 62.774 6.81057 62.456 6.57331 62.2216C6.33605 61.9872 6.01426 61.8555 5.67872 61.8555C5.34319 61.8555 5.0214 61.9872 4.78414 62.2216L2.90609 64.0772C2.72915 64.252 2.60865 64.4748 2.55983 64.7172C2.51102 64.9597 2.53607 65.2111 2.63183 65.4395C2.72758 65.6679 2.88974 65.8631 3.0978 66.0005C3.30585 66.1378 3.55045 66.2111 3.80068 66.2111Z" fill="#E22526"/>
<path d="M12.3403 64.0333L11.1959 65.1641C10.9586 65.3985 10.8253 65.7165 10.8253 66.048C10.8253 66.3795 10.9586 66.6975 11.1959 66.9319C11.4331 67.1663 11.7549 67.298 12.0905 67.298C12.426 67.298 12.7478 67.1663 12.985 66.9319L14.1295 65.8011L14.1739 65.845C14.4112 66.0795 14.733 66.2112 15.0685 66.2112C15.4041 66.2112 15.7258 66.0795 15.9631 65.845C16.2004 65.6106 16.3337 65.2927 16.3337 64.9611C16.3337 64.6296 16.2004 64.3116 15.9631 64.0772L15.0257 63.151L15.0242 63.1493L15.0227 63.1478L14.0851 62.2216C13.9676 62.1055 13.8281 62.0134 13.6746 61.9506C13.5211 61.8878 13.3566 61.8555 13.1905 61.8555C13.0243 61.8555 12.8598 61.8878 12.7063 61.9506C12.5528 62.0134 12.4134 62.1055 12.2959 62.2216C12.1784 62.3377 12.0852 62.4755 12.0216 62.6271C11.9581 62.7788 11.9253 62.9413 11.9253 63.1055C11.9253 63.2697 11.9581 63.4322 12.0216 63.5839C12.0852 63.7355 12.1784 63.8733 12.2959 63.9894L12.3403 64.0333Z" fill="#E22526"/>
<path d="M14.1739 71.5L14.1295 71.5439L12.9849 70.4131C12.7467 70.183 12.4263 70.055 12.0932 70.0569C11.7602 70.0588 11.4413 70.1904 11.2058 70.4231C10.9703 70.6558 10.8372 70.9709 10.8353 71.3C10.8335 71.6291 10.9631 71.9456 11.196 72.1809L12.3403 73.3115L12.2958 73.3556C12.0586 73.59 11.9253 73.908 11.9253 74.2395C11.9253 74.571 12.0586 74.889 12.2958 75.1234C12.5331 75.3578 12.8549 75.4895 13.1904 75.4895C13.526 75.4895 13.8478 75.3578 14.085 75.1234L15.9631 73.2678C16.2003 73.0333 16.3336 72.7154 16.3336 72.3839C16.3336 72.0523 16.2003 71.7344 15.9631 71.5C15.7258 71.2655 15.404 71.1338 15.0685 71.1338C14.7329 71.1338 14.4112 71.2655 14.1739 71.5Z" fill="#E22526"/>
<path d="M66.5 76C67.8807 76 69 74.8807 69 73.5C69 72.1193 67.8807 71 66.5 71C65.1193 71 64 72.1193 64 73.5C64 74.8807 65.1193 76 66.5 76Z" fill="#F77F7F"/>
<path d="M4.5 50C5.88071 50 7 48.8807 7 47.5C7 46.1193 5.88071 45 4.5 45C3.11929 45 2 46.1193 2 47.5C2 48.8807 3.11929 50 4.5 50Z" fill="#F77F7F"/>
<path d="M31.75 8.75C33.1307 8.75 34.25 7.63071 34.25 6.25C34.25 4.86929 33.1307 3.75 31.75 3.75C30.3693 3.75 29.25 4.86929 29.25 6.25C29.25 7.63071 30.3693 8.75 31.75 8.75Z" fill="#F77F7F"/>
<path d="M74 43C74.5523 43 75 42.3284 75 41.5C75 40.6716 74.5523 40 74 40C73.4477 40 73 40.6716 73 41.5C73 42.3284 73.4477 43 74 43Z" fill="#E22526"/>
<path d="M63.5 68C64.3284 68 65 67.3284 65 66.5C65 65.6716 64.3284 65 63.5 65C62.6716 65 62 65.6716 62 66.5C62 67.3284 62.6716 68 63.5 68Z" fill="#E22526"/>
<path d="M72.5 70C73.3284 70 74 69.5523 74 69C74 68.4477 73.3284 68 72.5 68C71.6716 68 71 68.4477 71 69C71 69.5523 71.6716 70 72.5 70Z" fill="#E22526"/>
<path d="M70 34C70.5523 34 71 33.3284 71 32.5C71 31.6716 70.5523 31 70 31C69.4477 31 69 31.6716 69 32.5C69 33.3284 69.4477 34 70 34Z" fill="#F77F7F"/>
<path d="M12.9999 54C13.5522 54 13.9999 53.3284 13.9999 52.5C13.9999 51.6716 13.5522 51 12.9999 51C12.4477 51 11.9999 51.6716 11.9999 52.5C11.9999 53.3284 12.4477 54 12.9999 54Z" fill="#E22526"/>
<path d="M5.5 35C6.32843 35 7 34.5523 7 34C7 33.4477 6.32843 33 5.5 33C4.67157 33 4 33.4477 4 34C4 34.5523 4.67157 35 5.5 35Z" fill="#E22526"/>
<path d="M45.5 10C46.1904 10 46.75 9.44036 46.75 8.75C46.75 8.05964 46.1904 7.5 45.5 7.5C44.8096 7.5 44.25 8.05964 44.25 8.75C44.25 9.44036 44.8096 10 45.5 10Z" fill="#E22526"/>
<path d="M34.6578 52.5H29.5974C27.5842 52.5 25.6535 53.2902 24.23 54.6967C22.8065 56.1032 22.0068 58.0109 22.0068 60V61.25H54.8995V60C54.8995 58.0109 54.0998 56.1032 52.6763 54.6967C51.2528 53.2902 49.3221 52.5 47.3089 52.5H34.6578Z" fill="#FD918C"/>
<path d="M34.6578 50C34.6578 50.663 34.3913 51.2989 33.9168 51.7678C33.4422 52.2366 32.7987 52.5 32.1276 52.5H29.5974C30.5056 54.0227 31.8002 55.2849 33.3533 56.1618C34.9065 57.0387 36.6643 57.5 38.4532 57.5C40.242 57.5 41.9998 57.0387 43.553 56.1618C45.1061 55.2849 46.4007 54.0227 47.3089 52.5H44.7787C44.1076 52.5 43.4641 52.2366 42.9896 51.7678C42.515 51.2989 42.2485 50.663 42.2485 50C43.2551 50 44.2204 49.6049 44.9322 48.9016C45.6439 48.1984 46.0438 47.2446 46.0438 46.25V32.5H30.8625V46.25C30.8625 47.2446 31.2624 48.1984 31.9741 48.9016C32.6859 49.6049 33.6513 50 34.6578 50Z" fill="#FAC8B2"/>
<path d="M30.8625 42.5H46.0438V46.25C46.0438 47.2446 45.6439 48.1984 44.9321 48.9016C44.2204 49.6049 43.255 50 42.2484 50H34.6578C33.6512 50 32.6859 49.6049 31.9741 48.9016C31.2623 48.1984 30.8625 47.2446 30.8625 46.25V42.5Z" fill="#5EC09B"/>
<path d="M46.0438 31.25C46.0438 32.576 45.5107 33.8478 44.5617 34.7855C43.6126 35.7232 42.3255 36.25 40.9834 36.25H30.8626V48.75L27.5356 48.77C26.9962 48.7732 26.4615 48.6706 25.9624 48.4681C25.4634 48.2656 25.01 47.9673 24.6286 47.5904L24.5797 47.5421C23.8653 46.8381 23.432 45.9029 23.3596 44.9085C23.2872 43.9141 23.5805 42.9273 24.1856 42.1295C25.2436 40.7358 25.9043 39.0876 26.0991 37.3562L26.457 33.2487C26.6417 31.129 27.3983 29.097 28.6481 27.3644C29.8979 25.6319 31.5951 24.2622 33.5628 23.3981C35.1022 22.7221 36.7681 22.3728 38.4527 22.3728C40.1373 22.3728 41.8032 22.7221 43.3427 23.3981C45.3104 24.2622 47.0075 25.6319 48.2573 27.3644C49.5071 29.097 50.2637 31.129 50.4484 33.2487L50.8063 37.3562C51.0011 39.0876 51.6619 40.7358 52.7198 42.1295L52.7487 42.167C53.3493 42.947 53.6435 43.9157 53.5766 44.8936C53.5097 45.8715 53.0864 46.7923 52.385 47.4854L52.3412 47.5287C51.9505 47.9169 51.486 48.2248 50.9744 48.4349C50.4628 48.6449 49.9142 48.7529 49.3601 48.7526C47.8983 48.75 46.0438 48.75 46.0438 48.75V31.25Z" fill="#FFDB43"/>
<path d="M34.6578 41.25C35.3565 41.25 35.9229 40.6904 35.9229 40C35.9229 39.3096 35.3565 38.75 34.6578 38.75C33.9591 38.75 33.3927 39.3096 33.3927 40C33.3927 40.6904 33.9591 41.25 34.6578 41.25Z" fill="#683B11"/>
<path d="M42.2484 41.25C42.9471 41.25 43.5135 40.6904 43.5135 40C43.5135 39.3096 42.9471 38.75 42.2484 38.75C41.5497 38.75 40.9833 39.3096 40.9833 40C40.9833 40.6904 41.5497 41.25 42.2484 41.25Z" fill="#683B11"/>
<path d="M58.7353 61H18.2647C17.5662 61 17 61.5596 17 62.25V74.75C17 75.4404 17.5662 76 18.2647 76H58.7353C59.4338 76 60 75.4404 60 74.75V62.25C60 61.5596 59.4338 61 58.7353 61Z" fill="#D1E1E5"/>
<path d="M38.5 71C39.8807 71 41 69.8807 41 68.5C41 67.1193 39.8807 66 38.5 66C37.1193 66 36 67.1193 36 68.5C36 69.8807 37.1193 71 38.5 71Z" fill="#ECEFF0"/>
<path d="M53.6344 26.25H57.4297V32.5L63.7553 26.25H73.8761C74.2116 26.25 74.5334 26.1183 74.7707 25.8839C75.0079 25.6495 75.1412 25.3315 75.1412 25V5C75.1412 4.66848 75.0079 4.35054 74.7707 4.11612C74.5334 3.8817 74.2116 3.75 73.8761 3.75H53.6344C53.2989 3.75 52.9771 3.8817 52.7399 4.11612C52.5026 4.35054 52.3693 4.66848 52.3693 5V25C52.3693 25.3315 52.5026 25.6495 52.7399 25.8839C52.9771 26.1183 53.2989 26.25 53.6344 26.25Z" fill="#F98800"/>
<path d="M70.0808 26.25H57.4298V22.5C57.4298 21.837 57.6963 21.2011 58.1708 20.7322C58.6453 20.2634 59.2889 20 59.96 20H67.5506C68.2217 20 68.8652 20.2634 69.3397 20.7322C69.8142 21.2011 70.0808 21.837 70.0808 22.5V26.25Z" fill="#FFDB43"/>
<path d="M63.7552 20C66.55 20 68.8157 17.7614 68.8157 15C68.8157 12.2386 66.55 10 63.7552 10C60.9605 10 58.6948 12.2386 58.6948 15C58.6948 17.7614 60.9605 20 63.7552 20Z" fill="#FFDB43"/>
<path d="M63.7552 18.0177C63.354 18.0188 62.9565 17.9413 62.5858 17.7896C62.2151 17.6379 61.8785 17.415 61.5955 17.1339C61.3583 16.8995 61.225 16.5816 61.225 16.25C61.225 15.9185 61.3583 15.6006 61.5955 15.3661C61.8328 15.1317 62.1546 15 62.4901 15C62.8257 15 63.1474 15.1317 63.3847 15.3661C63.483 15.4632 63.6163 15.5177 63.7552 15.5177C63.8942 15.5177 64.0274 15.4632 64.1257 15.3661C64.363 15.1317 64.6848 15 65.0203 15C65.3559 15 65.6777 15.1317 65.9149 15.3661C66.1522 15.6006 66.2855 15.9185 66.2855 16.25C66.2855 16.5816 66.1522 16.8995 65.9149 17.1339C65.632 17.415 65.2954 17.6379 64.9247 17.7896C64.554 17.9413 64.1565 18.0188 63.7552 18.0177Z" fill="#F98800"/>
<path d="M23.2719 26.25H19.4766V32.5L13.1511 26.25H3.03024C2.69472 26.25 2.37293 26.1183 2.13568 25.8839C1.89842 25.6495 1.76514 25.3315 1.76514 25V5C1.76514 4.66848 1.89842 4.35054 2.13568 4.11612C2.37293 3.8817 2.69472 3.75 3.03024 3.75H23.2719C23.6075 3.75 23.9292 3.8817 24.1665 4.11612C24.4038 4.35054 24.537 4.66848 24.537 5V25C24.537 25.3315 24.4038 25.6495 24.1665 25.8839C23.9292 26.1183 23.6075 26.25 23.2719 26.25Z" fill="#FFDB43"/>
<path d="M9.35577 20H16.9464C17.6175 20 18.261 20.2634 18.7355 20.7322C19.21 21.2011 19.4766 21.837 19.4766 22.5V26.25H6.82556V22.5C6.82556 21.837 7.09214 21.2011 7.56664 20.7322C8.04115 20.2634 8.68472 20 9.35577 20Z" fill="#B71E71"/>
<path d="M13.1511 20C15.9459 20 18.2115 17.7614 18.2115 15C18.2115 12.2386 15.9459 10 13.1511 10C10.3563 10 8.09064 12.2386 8.09064 15C8.09064 17.7614 10.3563 20 13.1511 20Z" fill="#B71E71"/>
<path d="M13.151 18.0177C12.7498 18.0188 12.3523 17.9413 11.9816 17.7896C11.6109 17.6379 11.2743 17.415 10.9913 17.1339C10.7541 16.8995 10.6208 16.5816 10.6208 16.25C10.6208 15.9185 10.7541 15.6006 10.9913 15.3661C11.2286 15.1317 11.5504 15 11.8859 15C12.2215 15 12.5433 15.1317 12.7805 15.3661C12.8788 15.4632 13.0121 15.5177 13.151 15.5177C13.29 15.5177 13.4233 15.4632 13.5216 15.3661C13.7588 15.1317 14.0806 15 14.4161 15C14.7517 15 15.0735 15.1317 15.3107 15.3661C15.548 15.6006 15.6813 15.9185 15.6813 16.25C15.6813 16.5816 15.548 16.8995 15.3107 17.1339C15.0278 17.415 14.6912 17.6379 14.3205 17.7896C13.9498 17.9413 13.5523 18.0188 13.151 18.0177Z" fill="#FFDB43"/>
<path d="M66 70.5C65.0058 70.5012 64.0526 70.8966 63.3496 71.5996C62.6466 72.3026 62.2512 73.2558 62.25 74.25C62.4561 79.2248 69.5447 79.2234 69.75 74.25C69.7488 73.2558 69.3534 72.3026 68.6504 71.5996C67.9474 70.8966 66.9942 70.5012 66 70.5ZM66 75.5C65.6686 75.4996 65.3509 75.3678 65.1165 75.1335C64.8822 74.8991 64.7504 74.5814 64.75 74.25C64.8125 72.5938 67.1875 72.5938 67.25 74.25C67.2496 74.5814 67.1178 74.8991 66.8835 75.1335C66.6491 75.3678 66.3314 75.4996 66 75.5ZM1 48C1.00116 48.9942 1.39662 49.9474 2.09963 50.6504C2.80264 51.3534 3.75579 51.7488 4.75 51.75C9.72484 51.5439 9.72344 44.4553 4.75 44.25C3.75579 44.2512 2.80264 44.6466 2.09963 45.3496C1.39662 46.0526 1.00116 47.0058 1 48ZM6 48C5.99963 48.3314 5.86781 48.6491 5.63347 48.8835C5.39913 49.1178 5.08141 49.2496 4.75 49.25C3.09375 49.1875 3.09375 46.8125 4.75 46.75C5.08141 46.7504 5.39913 46.8822 5.63347 47.1165C5.86781 47.3509 5.99963 47.6686 6 48ZM32.25 10.5C33.2442 10.4988 34.1974 10.1034 34.9004 9.40037C35.6034 8.69736 35.9988 7.74421 36 6.75C35.7939 1.77516 28.7053 1.77656 28.5 6.75C28.5012 7.74421 28.8966 8.69736 29.5996 9.40037C30.3026 10.1034 31.2558 10.4988 32.25 10.5ZM32.25 5.5C32.5814 5.50037 32.8991 5.63219 33.1335 5.86653C33.3678 6.10087 33.4996 6.41859 33.5 6.75C33.4375 8.40625 31.0625 8.40625 31 6.75C31.0004 6.41859 31.1322 6.10087 31.3665 5.86653C31.6009 5.63219 31.9186 5.50037 32.25 5.5ZM73.5 40.5C73.8315 40.5 74.1495 40.6317 74.3839 40.8661C74.6183 41.1005 74.75 41.4185 74.75 41.75C74.6888 43.4062 72.3109 43.4062 72.25 41.75C72.25 41.4185 72.3817 41.1005 72.6161 40.8661C72.8505 40.6317 73.1685 40.5 73.5 40.5ZM63.5 68C63.1685 68 62.8505 67.8683 62.6161 67.6339C62.3817 67.3995 62.25 67.0815 62.25 66.75C62.3112 65.0938 64.6891 65.0938 64.75 66.75C64.75 67.0815 64.6183 67.3995 64.3839 67.6339C64.1495 67.8683 63.8315 68 63.5 68ZM73.5 69.25C73.5 69.5815 73.3683 69.8995 73.1339 70.1339C72.8995 70.3683 72.5815 70.5 72.25 70.5C70.5938 70.4388 70.5938 68.0609 72.25 68C72.5815 68 72.8995 68.1317 73.1339 68.3661C73.3683 68.6005 73.5 68.9185 73.5 69.25ZM69.75 31.75C70.0815 31.75 70.3995 31.8817 70.6339 32.1161C70.8683 32.3505 71 32.6685 71 33C70.9388 34.6562 68.5611 34.6562 68.5 33C68.5 32.6685 68.6317 32.3505 68.8661 32.1161C69.1005 31.8817 69.4185 31.75 69.75 31.75ZM12.25 53C12.25 52.6685 12.3817 52.3505 12.6161 52.1161C12.8505 51.8817 13.1685 51.75 13.5 51.75C15.1562 51.8112 15.1562 54.1891 13.5 54.25C13.1685 54.25 12.8505 54.1183 12.6161 53.8839C12.3817 53.6495 12.25 53.3315 12.25 53ZM6 35.5C5.66848 35.5 5.35054 35.3683 5.11612 35.1339C4.8817 34.8995 4.75 34.5815 4.75 34.25C4.81125 32.5938 7.18891 32.5938 7.25 34.25C7.25 34.5815 7.1183 34.8995 6.88388 35.1339C6.64946 35.3683 6.33152 35.5 6 35.5ZM44.75 9.25C44.75 8.91848 44.8817 8.60054 45.1161 8.36612C45.3505 8.1317 45.6685 8 46 8C47.6562 8.06125 47.6562 10.4389 46 10.5C45.6685 10.5 45.3505 10.3683 45.1161 10.1339C44.8817 9.89946 44.75 9.58152 44.75 9.25ZM34.75 41.75C34.4185 41.75 34.1005 41.6183 33.8661 41.3839C33.6317 41.1495 33.5 40.8315 33.5 40.5C33.5612 38.8438 35.9389 38.8438 36 40.5C36 40.8315 35.8683 41.1495 35.6339 41.3839C35.3995 41.6183 35.0815 41.75 34.75 41.75ZM42.25 41.75C41.9185 41.75 41.6005 41.6183 41.3661 41.3839C41.1317 41.1495 41 40.8315 41 40.5C41.0612 38.8438 43.4389 38.8438 43.5 40.5C43.5 40.8315 43.3683 41.1495 43.1339 41.3839C42.8995 41.6183 42.5815 41.75 42.25 41.75ZM38.5 65.5C37.5058 65.5012 36.5526 65.8966 35.8496 66.5996C35.1466 67.3026 34.7512 68.2558 34.75 69.25C34.9561 74.2248 42.0447 74.2234 42.25 69.25C42.2488 68.2558 41.8534 67.3026 41.1504 66.5996C40.4474 65.8966 39.4942 65.5012 38.5 65.5ZM38.5 70.5C38.1686 70.4996 37.8509 70.3678 37.6165 70.1335C37.3822 69.8991 37.2504 69.5814 37.25 69.25C37.3125 67.5938 39.6875 67.5938 39.75 69.25C39.7496 69.5814 39.6178 69.8991 39.3835 70.1335C39.1491 70.3678 38.8314 70.4996 38.5 70.5ZM76 25.5V5.5C75.9992 4.8372 75.7356 4.20177 75.2669 3.7331C74.7982 3.26443 74.1628 3.00079 73.5 3H53.5C52.8372 3.00079 52.2018 3.26443 51.7331 3.7331C51.2644 4.20177 51.0008 4.8372 51 5.5V21.2322L39.3839 9.61609C39.2678 9.50001 39.13 9.40793 38.9784 9.34511C38.8267 9.28229 38.6642 9.24995 38.5 9.24995C38.3358 9.24995 38.1733 9.28229 38.0216 9.34511C37.87 9.40793 37.7322 9.50001 37.6161 9.61609L26 21.2322V5.5C25.9992 4.8372 25.7356 4.20177 25.2669 3.7331C24.7982 3.26443 24.1628 3.00079 23.5 3H3.5C2.8372 3.00079 2.20177 3.26443 1.7331 3.7331C1.26443 4.20177 1.00079 4.8372 1 5.5V25.5C1.00079 26.1628 1.26443 26.7982 1.7331 27.2669C2.20177 27.7356 2.8372 27.9992 3.5 28H12.9823L16.1073 31.125L8.86609 38.3661C8.75001 38.4822 8.65793 38.62 8.59511 38.7716C8.53229 38.9233 8.49995 39.0858 8.49995 39.25C8.49995 39.4142 8.53229 39.5767 8.59511 39.7284C8.65793 39.88 8.75001 40.0178 8.86609 40.1339L12.6161 43.8839C12.7322 44 12.87 44.0921 13.0216 44.1549C13.1733 44.2177 13.3358 44.25 13.5 44.25C13.6642 44.25 13.8267 44.2177 13.9784 44.1549C14.13 44.0921 14.2678 44 14.3839 43.8839L18.5 39.7677V60.5C17.8372 60.5008 17.2018 60.7644 16.7331 61.2331C16.2644 61.7018 16.0008 62.3372 16 63V64.3769L14.345 62.7217C13.1003 61.5705 11.4117 63.3442 12.6211 64.5333L12.2594 64.895C11.8659 64.6628 11.442 64.4864 11 64.3708V62.9566C12.3906 62.5659 12.1406 60.5259 10.6777 60.5H8.82219C7.36062 60.5256 7.10813 62.5653 8.5 62.9566V64.3708C8.05798 64.4864 7.63415 64.6628 7.24062 64.895L6.87891 64.5333C8.08797 63.3448 6.4 61.5698 5.155 62.7217L3.29953 64.5781C2.14844 65.822 3.92172 67.5114 5.11203 66.3019L5.47375 66.6634C5.24148 67.057 5.065 67.4809 4.94938 67.923H3.53438C3.14375 66.5316 1.10375 66.7823 1.07781 68.2452V70.1006C1.10344 71.5623 3.14313 71.8148 3.53438 70.423H4.94859C5.06421 70.8649 5.24063 71.2887 5.47281 71.6822L5.11125 72.0439C3.9225 70.835 2.14797 72.523 3.29953 73.7677L4.22516 74.6934C4.22656 74.6984 5.15234 75.6181 5.155 75.6233C6.39859 76.7747 8.08859 75.0014 6.87891 73.8119L7.24078 73.45C7.63425 73.6819 8.05804 73.858 8.5 73.9733V75.3877C7.10938 75.7783 7.35938 77.8183 8.82234 77.8442H10.6778C12.1394 77.8186 12.3919 75.7789 11 75.3877V73.9733C11.442 73.8578 11.8658 73.6814 12.2592 73.4492L12.6211 73.8111C11.4117 75.0005 13.1011 76.7739 14.345 75.6225C14.753 75.2133 15.5959 74.3725 16 73.9673V75.5C16.0008 76.1628 16.2644 76.7982 16.7331 77.2669C17.2018 77.7356 17.8372 77.9992 18.5 78H58.5C59.1628 77.9992 59.7982 77.7356 60.2669 77.2669C60.7356 76.7982 60.9992 76.1628 61 75.5V63C60.9992 62.3372 60.7356 61.7018 60.2669 61.2331C59.7982 60.7644 59.1628 60.5008 58.5 60.5V54.0058C58.5261 55.4684 60.5658 55.7191 60.9566 54.3278H62.3708C62.4864 54.7698 62.6628 55.1936 62.895 55.587L62.5333 55.9489C61.3444 54.7402 59.57 56.4278 60.7216 57.6728L62.5772 59.5284C62.6952 59.6463 62.8356 59.7394 62.9901 59.8021C63.1447 59.8649 63.3102 59.8962 63.477 59.894C63.6437 59.8919 63.8084 59.8564 63.9613 59.7897C64.1142 59.723 64.2521 59.6264 64.3671 59.5056C64.4821 59.3847 64.5717 59.2421 64.6308 59.0861C64.6898 58.9301 64.7171 58.7639 64.7109 58.5972C64.7048 58.4306 64.6653 58.2668 64.595 58.1156C64.5246 57.9644 64.4247 57.8288 64.3011 57.7167L64.663 57.355C65.0564 57.5872 65.4802 57.7636 65.9222 57.8792V59.2934C64.5308 59.6841 64.7816 61.7241 66.2444 61.75H68.0998C69.5616 61.7244 69.8141 59.6847 68.4222 59.2934V57.8792C68.8641 57.7635 69.2879 57.5871 69.6814 57.355L70.0431 57.7167C69.1983 58.4792 69.757 59.9042 70.8831 59.8945C71.0473 59.8948 71.2099 59.8625 71.3616 59.7997C71.5133 59.7369 71.6511 59.6447 71.767 59.5284L73.6227 57.6728C74.7738 56.4289 73.0008 54.7394 71.8102 55.9489L71.4484 55.5872C71.6806 55.1937 71.857 54.7698 71.9725 54.3278H73.3869C73.7775 55.7192 75.8175 55.4684 75.8434 54.0056V52.1502C75.8178 50.6884 73.7781 50.4359 73.3869 51.8278H71.9725C71.8569 51.3858 71.6806 50.962 71.4484 50.5686L71.8102 50.207C72.9998 51.4161 74.7731 49.7272 73.6227 48.483C73.6183 48.4809 72.6972 47.5556 72.6934 47.5536L71.767 46.6273C70.5222 45.4762 68.8339 47.2498 70.043 48.4398L69.6813 48.8016C69.2879 48.5694 68.8641 48.393 68.4222 48.2775V46.8631C69.8128 46.4725 69.5628 44.4325 68.0998 44.4066H66.2442C64.7827 44.4322 64.5302 46.4722 65.9222 46.8631V48.2775C65.4802 48.393 65.0563 48.5694 64.6628 48.8016L64.3011 48.44C65.5102 47.2511 63.8222 45.4769 62.5772 46.6275L60.7216 48.4831C59.5705 49.7273 61.3438 51.4164 62.5341 50.207L62.8958 50.5687C62.6635 50.9622 62.487 51.386 62.3714 51.828H60.9572C60.5656 50.4359 58.5264 50.6888 58.5006 52.1503V39.7677L62.6167 43.8839C62.7328 44 62.8706 44.0921 63.0223 44.1549C63.1739 44.2177 63.3365 44.25 63.5006 44.25C63.6648 44.25 63.8273 44.2177 63.979 44.1549C64.1307 44.0921 64.2685 44 64.3845 43.8839L68.1345 40.1339C68.2506 40.0178 68.3427 39.88 68.4055 39.7284C68.4683 39.5767 68.5007 39.4142 68.5007 39.25C68.5007 39.0858 68.4683 38.9233 68.4055 38.7716C68.3427 38.62 68.2506 38.4822 68.1345 38.3661L60.8928 31.125L64.0178 28H73.5C74.1628 27.9992 74.7982 27.7356 75.2669 27.2669C75.7356 26.7982 75.9992 26.1628 76 25.5ZM14.4327 66.3448C14.6355 66.5478 14.902 66.6747 15.1874 66.7043C15.4728 66.734 15.7597 66.6645 16 66.5077V67.8136C15.987 67.8491 15.9755 67.8853 15.9656 67.9222H14.5514C14.4358 67.4801 14.2593 67.0562 14.027 66.6627L14.3888 66.3011L14.4327 66.3448ZM9.75 71.6331C9.09747 71.6324 8.47186 71.3729 8.01047 70.9115C7.54907 70.45 7.28957 69.8244 7.28891 69.1719C7.42406 65.9062 12.0766 65.9078 12.2108 69.1719C12.2101 69.8244 11.9507 70.4499 11.4893 70.9113C11.028 71.3728 10.4025 71.6323 9.75 71.6331ZM14.4327 71.9994L14.3888 72.0431L14.0272 71.6814C14.2594 71.288 14.4358 70.8642 14.5514 70.4222H15.9656C15.9755 70.4591 15.987 70.4952 16 70.5306V71.8366C15.7597 71.6798 15.4727 71.6104 15.1873 71.6402C14.9019 71.67 14.6355 71.797 14.4327 72V71.9994ZM3.5 5.5H23.5L23.5014 24.2188C23.5014 24.2394 23.5014 24.2598 23.5014 24.2803V25.5H21V23C20.999 22.2002 20.7428 21.4216 20.2686 20.7775C19.7945 20.1334 19.1271 19.6575 18.3638 19.4189C21.6481 15.415 18.7242 9.22594 13.5 9.25C8.27609 9.22578 5.35156 15.4159 8.63625 19.4189C7.87285 19.6575 7.20551 20.1334 6.73136 20.7775C6.25721 21.4216 6.00099 22.2002 6 23V25.5H3.5V5.5ZM9.75 15.5C9.75116 14.5058 10.1466 13.5526 10.8496 12.8496C11.5526 12.1466 12.5058 11.7512 13.5 11.75C18.4748 11.9561 18.4734 19.0447 13.5 19.25C12.5058 19.2488 11.5526 18.8534 10.8496 18.1504C10.1466 17.4474 9.75116 16.4942 9.75 15.5ZM8.5 25.5V23C8.50037 22.6686 8.63219 22.3509 8.86653 22.1165C9.10087 21.8822 9.41859 21.7504 9.75 21.75H17.25C17.5814 21.7504 17.8991 21.8822 18.1335 22.1165C18.3678 22.3509 18.4996 22.6686 18.5 23C18.4942 24.867 18.5042 28.1373 18.5 29.9823L14.3839 25.8661C14.2912 25.7744 14.1849 25.6975 14.0689 25.638C13.8929 25.5474 13.6979 25.5001 13.5 25.5H8.5ZM32.25 38H41C42.353 38.0015 43.6696 37.5616 44.75 36.747V41.75H32.25V38ZM47.25 46.75C47.25 43.4702 47.25 35.1033 47.25 31.75C47.25 31.4185 47.1183 31.1005 46.8839 30.8661C46.6495 30.6317 46.3315 30.5 46 30.5C45.6685 30.5 45.3505 30.6317 45.1161 30.8661C44.8817 31.1005 44.75 31.4185 44.75 31.75C44.7488 32.7442 44.3534 33.6974 43.6504 34.4004C42.9474 35.1034 41.9942 35.4988 41 35.5H31C30.6685 35.5 30.3505 35.6317 30.1161 35.8661C29.8817 36.1005 29.75 36.4185 29.75 36.75V43C29.7537 43.875 29.7472 47.1822 29.75 48.0077C29.7344 48.0077 27.7041 48.0202 27.6892 48.02C25.3625 48.0297 23.9922 45.227 25.3986 43.3852L25.4036 43.3788C27.7142 40.358 27.5598 37.4 27.8928 33.8552C28.0563 31.9582 28.7254 30.1398 29.8305 28.5893C30.9356 27.0389 32.4363 25.8131 34.1761 25.0397C40.7159 22.0336 48.5841 26.673 49.107 33.855C49.1102 33.8862 49.4602 37.9644 49.4637 37.9934C49.6836 39.9654 50.4321 41.8414 51.6302 43.4231C53.07 45.3017 51.6011 48.0169 49.2819 48.0013C48.6145 48.0003 47.8647 47.9998 47.2506 47.9997L47.25 46.75ZM32.25 44.25H44.75V46.75C44.7492 47.4128 44.4856 48.0482 44.0169 48.5169C43.5482 48.9856 42.9128 49.2492 42.25 49.25H34.75C34.0872 49.2492 33.4518 48.9856 32.9831 48.5169C32.5144 48.0482 32.2508 47.4128 32.25 46.75V44.25ZM35.785 51.75H41.215C41.473 52.4772 41.9487 53.1072 42.5774 53.5545C43.2061 54.0018 43.9573 54.2446 44.7289 54.25C41.5337 57.575 35.4378 57.5647 32.2617 54.25C33.0349 54.2466 33.7882 54.0047 34.4188 53.5573C35.0493 53.1098 35.5265 52.4787 35.785 51.75ZM29.0686 54.2877C33.3195 60.897 43.7016 60.8733 47.9312 54.2877C49.4609 54.4573 50.8745 55.1846 51.9018 56.3306C52.929 57.4766 53.498 58.961 53.5 60.5H23.5C23.4387 57.3931 25.9844 54.5645 29.0686 54.2877ZM58.5016 75.5H18.5V63H58.5L58.5016 75.5ZM67.1719 50.6169C67.8243 50.6176 68.4499 50.8771 68.9112 51.3384C69.3726 51.7998 69.6321 52.4253 69.6328 53.0778C69.4977 56.3434 64.8453 56.3417 64.7109 53.0778C64.7117 52.4254 64.9712 51.7998 65.4325 51.3385C65.8939 50.8771 66.5194 50.6176 67.1719 50.6169ZM65.4823 39.25L63.5 41.2323L58.1339 35.8661C57.9591 35.6913 57.7364 35.5722 57.4939 35.524C57.2514 35.4757 57.0001 35.5005 56.7716 35.5951C56.5432 35.6897 56.348 35.8499 56.2106 36.0555C56.0733 36.2611 56 36.5028 56 36.75V60.5C55.9974 58.1802 55.0747 55.9561 53.4343 54.3157C51.7939 52.6753 49.5698 51.7526 47.25 51.75H44.75C44.4548 51.7502 44.1691 51.6455 43.9439 51.4545C44.5631 51.2288 45.1323 50.8844 45.6195 50.4406C46.1622 50.5713 47.3914 50.4694 49.2758 50.5019C53.6467 50.5428 56.308 45.4117 53.6208 41.9097C52.6991 40.6924 52.1223 39.2495 51.9508 37.7323L51.598 33.6406C50.9519 24.7722 41.235 19.0423 33.1605 22.7553C31.0121 23.7103 29.1592 25.2239 27.7947 27.1384C26.4301 29.0529 25.6039 31.2983 25.402 33.6406L25.0498 37.7322C24.88 39.2337 24.3133 40.6629 23.408 41.8728C20.7611 45.3534 23.307 50.532 27.6892 50.52C27.9194 50.498 31.2597 50.5552 31.3802 50.4408C31.8673 50.8845 32.4364 51.2288 33.0555 51.4545C32.8305 51.6454 32.545 51.7501 32.25 51.75H29.75C25.0441 51.6538 20.9037 55.795 21 60.5V36.75C21 36.5028 20.9267 36.2611 20.7894 36.0555C20.652 35.8499 20.4568 35.6897 20.2284 35.5951C19.9999 35.5005 19.7486 35.4757 19.5061 35.524C19.2636 35.5722 19.0409 35.6913 18.8661 35.8661L13.5 41.2323L11.5177 39.25L17.875 32.8928L18.8661 33.8839C19.6331 34.6706 21.0156 34.0938 21 33V29.7678L22.7678 28H23.5C24.1628 27.9992 24.7982 27.7356 25.2669 27.2669C25.7356 26.7982 25.9992 26.1628 26 25.5V24.7678L38.5 12.2678L51 24.7678V25.5C51.0008 26.1628 51.2644 26.7982 51.7331 27.2669C52.2018 27.7356 52.8372 27.9992 53.5 28H54.2322L56 29.7678V33C55.9844 34.0938 57.3672 34.6706 58.1339 33.8839L59.125 32.8928L65.4823 39.25ZM63.5 25.5C63.1687 25.5012 62.8512 25.6327 62.6161 25.8661L58.5 29.9823C58.4956 28.147 58.5031 24.8573 58.5 23C58.5004 22.6686 58.6322 22.3509 58.8665 22.1165C59.1009 21.8822 59.4186 21.7504 59.75 21.75H67.25C67.5814 21.7504 67.8991 21.8822 68.1335 22.1165C68.3678 22.3509 68.4996 22.6686 68.5 23V25.5H63.5ZM59.75 15.5C59.7512 14.5058 60.1466 13.5526 60.8496 12.8496C61.5526 12.1466 62.5058 11.7512 63.5 11.75C68.4748 11.9561 68.4734 19.0447 63.5 19.25C62.5058 19.2488 61.5526 18.8534 60.8496 18.1504C60.1466 17.4474 59.7512 16.4942 59.75 15.5ZM73.5 25.5H71V23C70.999 22.2002 70.7428 21.4216 70.2686 20.7775C69.7945 20.1334 69.1271 19.6575 68.3637 19.4189C71.6481 15.415 68.7242 9.22594 63.5 9.25C58.2761 9.22578 55.3516 15.4159 58.6363 19.4189C57.8729 19.6575 57.2055 20.1334 56.7314 20.7775C56.2572 21.4216 56.001 22.2002 56 23V25.5H53.5V5.5H73.5V25.5ZM65.6339 15.8661C66.857 17.2578 64.825 18.5759 63.5 18.5177C62.1755 18.5759 60.1427 17.2575 61.3661 15.8661C61.4822 15.75 61.62 15.6579 61.7716 15.5951C61.9233 15.5323 62.0858 15.5 62.25 15.5C62.4142 15.5 62.5767 15.5323 62.7284 15.5951C62.88 15.6579 63.0178 15.75 63.1339 15.8661C63.231 15.9631 63.3627 16.0176 63.5 16.0176C63.6373 16.0176 63.769 15.9631 63.8661 15.8661C63.9822 15.75 64.12 15.6579 64.2716 15.5951C64.4233 15.5323 64.5858 15.5 64.75 15.5C64.9142 15.5 65.0767 15.5323 65.2284 15.5951C65.38 15.6579 65.5178 15.75 65.6339 15.8661ZM15.6339 15.8661C16.857 17.2578 14.825 18.5759 13.5 18.5177C12.1755 18.5759 10.1427 17.2575 11.3661 15.8661C11.4822 15.75 11.62 15.6579 11.7716 15.5951C11.9233 15.5323 12.0858 15.5 12.25 15.5C12.4142 15.5 12.5767 15.5323 12.7284 15.5951C12.88 15.6579 13.0178 15.75 13.1339 15.8661C13.231 15.9631 13.3627 16.0176 13.5 16.0176C13.6373 16.0176 13.769 15.9631 13.8661 15.8661C13.9822 15.75 14.12 15.6579 14.2716 15.5951C14.4233 15.5323 14.5858 15.5 14.75 15.5C14.9142 15.5 15.0767 15.5323 15.2284 15.5951C15.38 15.6579 15.5178 15.75 15.6339 15.8661Z" fill="black"/>
</svg>
