<svg width="74" height="68" viewBox="0 0 74 68" fill="none" xmlns="http://www.w3.org/2000/svg">
<path d="M63.5111 12.4114H1.15491V51.2227H63.5111V12.4114Z" fill="white"/>
<path d="M32.333 51.2229L21.4884 66.1503H43.1775L32.333 51.2229Z" fill="white" stroke="#006DF0" stroke-width="2" stroke-linecap="round" stroke-linejoin="round"/>
<path d="M63.5111 28.8315V51.2227H1.15491V12.4114H48.5998" stroke="#006DF0" stroke-width="2" stroke-linecap="round" stroke-linejoin="round"/>
<path d="M63.5111 51.2229H1.15491V58.6866H63.5111V51.2229Z" fill="#78B9EB" stroke="#006DF0" stroke-width="2" stroke-linecap="round" stroke-linejoin="round"/>
<path d="M14.7106 66.1501H49.9554" stroke="#006DF0" stroke-width="2" stroke-linecap="round" stroke-linejoin="round"/>
<path d="M63.5112 1.9624L54.0222 5.44497L63.5112 8.92903L73.0002 5.44497L63.5112 1.9624Z" fill="white" stroke="#006DF0" stroke-width="2" stroke-linecap="round" stroke-linejoin="round"/>
<path d="M73.0002 19.3783L63.5112 22.8609L54.0222 19.3783V5.44507L63.5112 8.92913L73.0002 5.44507V19.3783Z" fill="#78B9EB" stroke="#006DF0" stroke-width="2" stroke-linecap="round" stroke-linejoin="round"/>
<path d="M63.5111 8.92896V22.8607" stroke="#006DF0" stroke-width="2" stroke-linecap="round" stroke-linejoin="round"/>
<path d="M32.3331 18.3826V45.2519" stroke="#78B9EB" stroke-width="2" stroke-linecap="round" stroke-linejoin="round"/>
<path d="M42.4996 28.0857L39.1107 31.8175L42.4996 35.5494" stroke="#006DF0" stroke-width="2" stroke-linecap="round" stroke-linejoin="round"/>
<path d="M53.3444 28.0857L56.7333 31.8175L53.3444 35.5494" stroke="#006DF0" stroke-width="2" stroke-linecap="round" stroke-linejoin="round"/>
<path d="M49.2775 28.0857L46.5664 35.5494" stroke="#006DF0" stroke-width="2" stroke-linecap="round" stroke-linejoin="round"/>
<path d="M6.57727 19.8752H10.644" stroke="#006DF0" stroke-width="2" stroke-linecap="round" stroke-linejoin="round"/>
<path d="M6.57727 24.3535H18.7774" stroke="#006DF0" stroke-width="2" stroke-linecap="round" stroke-linejoin="round"/>
<path d="M6.57727 31.8171H14.7107" stroke="#006DF0" stroke-width="2" stroke-linecap="round" stroke-linejoin="round"/>
<path d="M6.57727 43.759H10.644" stroke="#006DF0" stroke-width="2" stroke-linecap="round" stroke-linejoin="round"/>
<path d="M6.57727 36.2952H10.644" stroke="#006DF0" stroke-width="2" stroke-linecap="round" stroke-linejoin="round"/>
<path d="M14.7106 36.2952H18.7773" stroke="#006DF0" stroke-width="2" stroke-linecap="round" stroke-linejoin="round"/>
</svg>
