<svg width="129" height="20" viewBox="0 0 129 20" fill="none" xmlns="http://www.w3.org/2000/svg">
<path d="M117.939 19.3842C115.827 19.3842 113.971 18.9922 112.371 18.2082C110.787 17.4242 109.555 16.3282 108.675 14.9202C107.795 13.5122 107.355 11.8722 107.355 10.0002C107.355 8.12821 107.795 6.48821 108.675 5.08021C109.555 3.67221 110.787 2.57621 112.371 1.79221C113.971 1.00821 115.827 0.616211 117.939 0.616211C120.051 0.616211 121.899 1.00821 123.483 1.79221C125.083 2.57621 126.323 3.67221 127.203 5.08021C128.099 6.48821 128.547 8.12821 128.547 10.0002C128.547 11.8722 128.099 13.5122 127.203 14.9202C126.323 16.3282 125.083 17.4242 123.483 18.2082C121.899 18.9922 120.051 19.3842 117.939 19.3842ZM117.939 15.3282C119.187 15.3282 120.259 15.1202 121.155 14.7042C122.051 14.2722 122.739 13.6562 123.219 12.8562C123.715 12.0562 123.963 11.1042 123.963 10.0002C123.963 8.89621 123.715 7.94421 123.219 7.14421C122.739 6.34421 122.051 5.73621 121.155 5.32021C120.259 4.88821 119.187 4.67221 117.939 4.67221C116.707 4.67221 115.643 4.88821 114.747 5.32021C113.851 5.73621 113.155 6.34421 112.659 7.14421C112.163 7.94421 111.915 8.89621 111.915 10.0002C111.915 11.1042 112.163 12.0562 112.659 12.8562C113.155 13.6562 113.851 14.2722 114.747 14.7042C115.643 15.1202 116.707 15.3282 117.939 15.3282Z" fill="#FC7217"/>
<path d="M91.3237 8.92H98.0677C98.9157 8.92 99.5877 8.728 100.084 8.344C100.58 7.944 100.828 7.392 100.828 6.688C100.828 5.984 100.58 5.44 100.084 5.056C99.5877 4.656 98.9157 4.456 98.0677 4.456H90.6757L92.7157 2.224V19H88.1797V1H98.6677C100.012 1 101.188 1.24 102.196 1.72C103.204 2.2 103.988 2.864 104.548 3.712C105.108 4.56 105.388 5.552 105.388 6.688C105.388 7.808 105.108 8.792 104.548 9.64C103.988 10.488 103.204 11.152 102.196 11.632C101.188 12.112 100.012 12.352 98.6677 12.352H91.3237V8.92ZM94.2277 10.576H99.3397L105.964 19H100.708L94.2277 10.576Z" fill="#FC7217"/>
<path d="M78.8272 1C80.2992 1 81.5632 1.256 82.6192 1.768C83.6912 2.264 84.5072 2.968 85.0672 3.88C85.6432 4.792 85.9312 5.856 85.9312 7.072C85.9312 8.288 85.6432 9.352 85.0672 10.264C84.5072 11.176 83.6912 11.888 82.6192 12.4C81.5632 12.896 80.2992 13.144 78.8272 13.144H70.9552V9.472H78.5872C79.4512 9.472 80.1312 9.264 80.6272 8.848C81.1232 8.416 81.3712 7.824 81.3712 7.072C81.3712 6.32 81.1232 5.736 80.6272 5.32C80.1312 4.888 79.4512 4.672 78.5872 4.672H71.3632L73.4032 2.56V19H68.8672V1H78.8272Z" fill="#FC7217"/>
<path d="M60.8281 1H65.3641V19H60.8281V1Z" fill="#FC7217"/>
<path d="M50.5899 10.984V8.272L59.3259 19H53.7339L47.7579 11.296H49.9179L43.9179 19H38.4219L47.2059 8.296V10.96L38.9739 1H44.6139L50.0619 7.96H47.8779L53.2299 1H58.7739L50.5899 10.984Z" fill="#FC7217"/>
<path d="M21.0133 15.376V11.704H33.4453V15.376H21.0133ZM30.2773 1L38.5813 19H33.7573L26.6293 2.896H28.0213L20.9173 19H16.0693L24.3973 1H30.2773Z" fill="#FC7217"/>
<path d="M7.008 3.016H11.544V19H7.008V3.016ZM0 1H18.552V5.008H0V1Z" fill="#FC7217"/>
</svg>
