<svg width="51" height="51" viewBox="0 0 51 51" fill="none" xmlns="http://www.w3.org/2000/svg">
<path d="M25.5 51C39.5833 51 51 39.5833 51 25.5C51 11.4167 39.5833 0 25.5 0C11.4167 0 0 11.4167 0 25.5C0 39.5833 11.4167 51 25.5 51Z" fill="url(#paint0_linear_46_25)"/>
<path d="M37.9113 14.6725L33.3591 37.6324C33.3591 37.6324 32.7216 39.2262 30.9685 38.4592L20.4597 30.4008L16.6347 28.558L10.1999 26.3965C10.1999 26.3965 9.21381 26.0479 9.1142 25.2809C9.01459 24.5139 10.2298 24.1055 10.2298 24.1055L35.8095 14.0748C35.8095 14.0648 37.9113 13.1385 37.9113 14.6725Z" fill="white"/>
<path d="M19.643 37.3734C19.643 37.3734 19.3342 37.3436 18.9557 36.1383C18.5771 34.933 16.6348 28.558 16.6348 28.558L32.0842 18.7465C32.0842 18.7465 32.9807 18.2086 32.9408 18.7465C32.9408 18.7465 33.1002 18.8461 32.6221 19.2844C32.1439 19.7326 20.4896 30.2115 20.4896 30.2115" fill="#D2E4F0"/>
<path d="M24.4839 33.4887L20.3302 37.2838C20.3302 37.2838 20.0015 37.5328 19.6528 37.3734L20.4497 30.3311" fill="#B5CFE4"/>
<defs>
<linearGradient id="paint0_linear_46_25" x1="25.5" y1="0" x2="25.5" y2="50.814" gradientUnits="userSpaceOnUse">
<stop stop-color="#41BCE7"/>
<stop offset="1" stop-color="#22A6DC"/>
</linearGradient>
</defs>
</svg>
