<svg width="17" height="14" viewBox="0 0 17 14" fill="none" xmlns="http://www.w3.org/2000/svg">
<path d="M1.83297 6.06172C6.06082 4.15657 8.88005 2.90058 10.2907 2.29375C14.3182 0.561117 15.1551 0.260141 15.7006 0.250096C15.8206 0.248016 16.0888 0.278768 16.2626 0.424596C16.4093 0.54773 16.4497 0.714067 16.469 0.830812C16.4883 0.947557 16.5124 1.2135 16.4932 1.42131C16.275 3.79315 15.3306 9.54897 14.8501 12.2055C14.6468 13.3295 14.2466 13.7064 13.859 13.7433C13.0168 13.8235 12.3773 13.1676 11.5616 12.6146C10.2851 11.7492 9.56404 11.2105 8.32504 10.366C6.89316 9.39009 7.82139 8.85371 8.63741 7.9771C8.85097 7.74768 12.5617 4.25676 12.6336 3.94008C12.6425 3.90047 12.6509 3.75284 12.5661 3.67488C12.4813 3.59693 12.3561 3.62359 12.2658 3.64479C12.1378 3.67484 10.0987 5.06882 6.14845 7.82673C5.56965 8.2378 5.0454 8.43809 4.57568 8.42759C4.05786 8.41602 3.06177 8.12477 2.32129 7.87581C1.41305 7.57046 0.691203 7.40902 0.75406 6.89044C0.786799 6.62033 1.14644 6.34409 1.83297 6.06172Z" fill="white"/>
</svg>
