<svg width="15.750000" height="13.500000" viewBox="0 0 15.75 13.5" fill="none" xmlns="http://www.w3.org/2000/svg" xmlns:xlink="http://www.w3.org/1999/xlink">
	<defs/>
	<path id="Vector" d="M1.08 5.81C5.31 3.9 8.12 2.65 9.54 2.04C13.56 0.31 14.4 0.01 14.95 9.53e-5C15.07 -0.01 15.33 0.02 15.51 0.17C15.65 0.29 15.69 0.46 15.71 0.58C15.73 0.69 15.76 0.96 15.74 1.17C15.52 3.54 14.58 9.29 14.09 11.95C13.89 13.07 13.49 13.45 13.1 13.49C12.26 13.57 11.62 12.91 10.81 12.36C9.53 11.49 8.81 10.96 7.57 10.11C6.14 9.14 7.07 8.6 7.88 7.72C8.1 7.49 11.81 4 11.88 3.69C11.89 3.65 11.9 3.5 11.81 3.42C11.73 3.34 11.6 3.37 11.51 3.39C11.38 3.42 9.34 4.81 5.39 7.57C4.81 7.98 4.29 8.18 3.82 8.17C3.3 8.16 2.31 7.87 1.57 7.62C0.66 7.32 -0.06 7.15 0 6.64C0.03 6.37 0.39 6.09 1.08 5.81Z" fill="#FFFFFF" fill-opacity="1.000000" fill-rule="nonzero"/>
</svg>
