<svg width="65" height="64" viewBox="0 0 65 64" fill="none" xmlns="http://www.w3.org/2000/svg">
<g clip-path="url(#clip0_110_134)">
<path fill-rule="evenodd" clip-rule="evenodd" d="M28.8901 51.2516H33.5257V28.3355L28.8901 26.7871V51.2516Z" fill="black"/>
<path fill-rule="evenodd" clip-rule="evenodd" d="M42.4875 18.2192C42.436 21.316 41.4574 22.916 39.3971 22.916C37.2855 22.916 35.1222 21.7804 32.2379 20.387C28.3235 18.5288 26.4693 18.0127 24.0486 18.0127C20.0826 18.0127 16.9922 21.316 17.1983 26.9934H20.6491C20.7006 23.3804 21.9884 21.7804 24.0486 21.7804C26.1088 21.7804 28.2721 22.8644 30.9503 24.2063C34.9162 26.0127 36.9764 26.8386 39.2941 26.8386C42.8481 26.8386 46.1444 24.9288 45.8869 18.2192H42.4875Z" fill="black"/>
<path fill-rule="evenodd" clip-rule="evenodd" d="M32.0318 0C14.4685 0 0.149902 14.3484 0.149902 31.9484C0.149902 49.5484 14.4685 63.8968 32.0318 63.8968C49.5952 63.8968 63.9138 49.5484 63.9138 31.9484C63.9138 14.3484 49.6467 0 32.0318 0ZM32.0318 61.8323C15.6016 61.8323 2.21013 48.4645 2.21013 31.9484C2.21013 15.4323 15.6016 2.06452 32.0318 2.06452C48.4621 2.06452 61.8535 15.4839 61.8535 31.9484C61.8535 48.4129 48.4621 61.8323 32.0318 61.8323Z" fill="black"/>
</g>
<defs>
<clipPath id="clip0_110_134">
<rect width="63.8669" height="64" fill="white" transform="translate(0.149902)"/>
</clipPath>
</defs>
</svg>
