<svg width="80" height="80" viewBox="0 0 80 80" fill="none" xmlns="http://www.w3.org/2000/svg">
<path d="M15.2 76.7999C13.3226 76.6045 11.5709 75.7642 10.2435 74.4222C8.91607 73.0802 8.09496 71.3194 7.92004 69.4399V16.96C8.24004 14.08 9.92004 11.68 12.48 10.4C14 9.67995 14.88 9.51995 18.64 9.51995H21.28L21.6 8.87995C23.2 5.83995 26.4 3.75995 30.16 3.19995H33.92C37.68 3.83995 40.8 5.91995 42.32 8.87995L42.64 9.51995H45.28C49.12 9.51995 50 9.67995 51.6 10.4C53.84 11.6 55.44 13.68 56 16.32L56.16 24.24L56.24 31.68L57.76 27.92L60.32 21.68C61.44 19.04 61.76 18.48 62.32 17.76C63.04 16.96 64.16 16.24 65.28 15.92C66.08 15.76 67.36 15.76 68.24 16C70 16.64 71.3601 18 72 19.76C72.16 20.24 72.16 20.4799 72.16 21.44L72.08 23.04L69.12 30.24C65.893 37.9998 62.6664 45.7598 59.44 53.52C59.12 54.0799 58.72 54.4799 56.72 56C54.48 57.68 54.72 57.4399 54.72 59.04L54.8 59.9199L55.2 60.2399C55.6 60.4799 55.76 60.6399 55.92 60.88L56.16 61.2799V64.88C56.16 69.84 56.08 70.7199 55.2 72.3999C54.5756 73.618 53.6549 74.6594 52.5225 75.4283C51.3901 76.1972 50.0825 76.6689 48.72 76.7999H15.2Z" fill="#FDEFBB"/>
<path d="M15.68 76.8C14.16 76.72 12.72 76.24 11.52 75.44C10.88 74.96 9.75998 73.84 9.27998 73.2C8.55998 72.08 8.07998 70.8 7.91998 69.44C7.83998 68.16 7.83998 17.12 7.99998 16.48C8.31998 14.72 9.03998 13.28 10.32 12C11.28 11.04 12.16 10.4 13.36 9.99999C14.56 9.59999 15.04 9.59999 18.16 9.59999L21.28 9.51999L21.68 8.79999C22.8 6.55999 25.12 4.71999 27.76 3.75999C29.36 3.27999 30 3.19999 31.92 3.19999C34.1421 3.07134 36.3518 3.61252 38.2629 4.75353C40.1741 5.89453 41.6989 7.58284 42.64 9.59999H45.76C48.96 9.59999 49.44 9.59999 50.64 9.99999C51.84 10.4 52.72 11.04 53.68 12C54.96 13.28 55.76 14.72 56 16.48L56.08 24.32C56.08 30.96 56.08 32 56.24 31.6L61.68 18.72C62.24 17.68 63.12 16.88 64.24 16.32C67.36 14.88 70.88 16.48 72 19.92C72.16 20.32 72.16 20.56 72.16 21.52C72.16 22.4 72.16 22.64 72 23.2C67.8328 33.5455 63.5391 43.8396 59.12 54.08L56.64 56.08L53.68 58.32C52.4 59.28 52.08 59.36 50.96 58.88C50.24 58.56 49.92 58.24 49.76 57.76C49.6 57.12 48.72 50.08 48.8 49.84C48.8 49.68 49.68 47.36 50.8 44.72L52.8 39.92V29.6L52.88 19.28H50.48L50.4 19.52C50.24 19.92 49.92 20.4 49.52 20.56C49.2 20.72 49.04 20.72 30.24 20.72L11.2 20.8V65.52L32 65.6L52.72 65.52L52.8 63.36C52.88 61.04 52.88 60.96 53.44 60.48C54.24 59.68 55.44 60 56 61.04C56.08 61.28 56.16 61.6 56.16 64.88C56.16 68.96 56.08 69.92 55.76 70.88C55.36 72.32 54.8 73.36 53.68 74.4C52.5497 75.605 51.0642 76.4177 49.44 76.72L32.32 76.8H15.68ZM54.48 53.6L56.24 52.24L52.24 50.48C52 50.48 52 50.4 52.32 52.64L52.72 54.96L54.48 53.6ZM41.12 57.92C40.8 57.76 40.4 57.36 40.32 57.12C40.2891 55.197 40.3693 53.2738 40.56 51.36L40.96 50.96C41.2 50.8 41.28 50.8 44 50.8C46.64 50.8 46.72 50.8 46.96 50.96L47.44 51.52C47.6 51.84 47.6 51.92 47.6 54.48C47.6 57.2 47.6 57.28 47.2 57.68C46.72 58.08 46.64 58.08 44 58.08C41.76 58.08 41.44 58.08 41.12 57.92ZM16.96 57.76C16.56 57.44 16.4 57.12 16.4 56.72C16.4 56.32 16.56 56 16.96 55.68L17.2 55.52H33.76L34 55.68C34.32 55.92 34.64 56.56 34.64 56.88C34.56 57.2 34.24 57.6 34 57.76C33.76 57.92 33.6 57.92 25.44 57.92H17.2L16.96 57.76ZM16.96 53.28C16.56 52.96 16.4 52.64 16.4 52.24C16.4 51.84 16.56 51.52 16.96 51.2L17.2 51.04H22.88C29.12 51.04 28.88 51.04 29.2 51.52C29.36 51.76 29.44 51.92 29.44 52.24C29.44 52.56 29.36 52.72 29.2 52.96C28.88 53.44 29.12 53.44 22.88 53.44H17.2L16.96 53.28ZM31.84 53.28C31.44 52.96 31.28 52.72 31.28 52.24C31.28 51.76 31.44 51.52 31.84 51.2C32.08 51.04 32.16 51.04 32.88 51.04C33.52 51.04 33.68 51.12 33.84 51.2C34.08 51.44 34.4 52 34.4 52.24C34.4 52.48 34.08 53.04 33.84 53.28C33.68 53.36 33.52 53.44 32.88 53.44C32.16 53.44 32.08 53.44 31.84 53.28ZM41.28 46.72C40.88 46.56 40.72 46.4 40.56 46C40.4 45.76 40.4 45.44 40.4 43.2C40.4 40.4 40.4 40.4 40.88 40C41.28 39.68 41.6 39.6 42.08 39.84C42.48 40 42.64 40 44 40H45.52L46.96 38.56C48.08 37.44 48.4 37.2 48.64 37.12C49.52 36.96 50.24 37.68 50.08 38.56C50 38.8 49.76 39.12 48.56 40.32L47.04 41.84V44.64L47.28 45.04C47.6 45.44 47.6 45.84 47.36 46.24C46.96 46.88 47.04 46.8 44.16 46.88C41.84 46.88 41.44 46.88 41.28 46.72ZM16.96 46.56C16.56 46.24 16.4 45.92 16.4 45.52C16.4 45.12 16.56 44.8 16.96 44.48L17.2 44.32H22.48C28.4 44.32 28.16 44.32 28.56 44.88C28.8 45.36 28.8 45.68 28.56 46.16C28.16 46.72 28.4 46.72 22.48 46.72H17.2L16.96 46.56ZM16.96 42.08C16.56 41.76 16.4 41.44 16.4 41.04C16.4 40.64 16.56 40.32 16.96 40C17.2 39.84 17.28 39.84 18.48 39.84C19.68 39.84 19.76 39.84 20 40C20.4 40.32 20.56 40.64 20.56 41.04C20.64 41.44 20.4 41.76 20 42.08C19.76 42.24 19.68 42.24 18.48 42.24C17.28 42.24 17.2 42.24 16.96 42.08ZM22.8 42.08C22.4 41.76 22.24 41.44 22.24 41.04C22.24 40.64 22.4 40.32 22.8 40L23.04 39.84H27.44C32.32 39.84 32.16 39.84 32.56 40.4C32.8 40.88 32.8 41.2 32.56 41.68C32.16 42.24 32.32 42.24 27.44 42.24H23.04L22.8 42.08ZM41.28 35.52C40.88 35.36 40.72 35.2 40.56 34.8C40.4 34.56 40.4 34.24 40.4 31.92C40.4 29.44 40.4 29.36 40.56 29.12C41.04 28.48 41.68 28.32 42.32 28.72C42.64 28.96 42.64 28.96 44 28.96H45.44L46.96 27.52C48.08 26.32 48.4 26.08 48.64 26C49.52 25.84 50.24 26.56 50.08 27.44C50 27.68 49.68 28 48.4 29.36L46.72 31.04V33.28L46.96 33.44C47.52 33.92 47.68 34.48 47.36 35.04C46.96 35.68 47.04 35.6 44.16 35.68C41.84 35.68 41.44 35.68 41.28 35.52ZM16.96 35.44C16.56 35.12 16.4 34.8 16.4 34.4C16.4 34 16.56 33.68 16.96 33.36L17.2 33.2H25.6C34.88 33.2 34.32 33.2 34.72 33.68C34.96 34.08 34.96 34.72 34.72 35.12C34.32 35.6 34.88 35.6 25.6 35.6H17.2L16.96 35.44ZM16.96 30.72C16.56 30.4 16.4 30.08 16.4 29.68C16.4 29.28 16.56 28.96 16.96 28.64C17.2 28.48 17.2 28.48 20.48 28.48C23.68 28.48 23.84 28.48 24.08 28.64C24.4 28.88 24.64 29.28 24.64 29.68C24.64 30.08 24.4 30.48 24.08 30.72C23.84 30.88 23.68 30.88 20.48 30.88C17.2 30.88 17.2 30.88 16.96 30.72Z" fill="#FCE78F"/>
<path d="M15.68 76.8C14.16 76.72 12.72 76.24 11.52 75.44C10.88 74.96 9.75998 73.84 9.27998 73.2C8.55998 72.08 8.07998 70.8 7.91998 69.44C7.83998 68.16 7.83998 17.12 7.99998 16.48C8.31998 14.72 9.03998 13.28 10.32 12C11.28 11.04 12.16 10.4 13.36 9.99999C14.56 9.59999 15.04 9.59999 18.16 9.59999L21.28 9.51999L21.68 8.79999C22.8 6.55999 25.12 4.71999 27.76 3.75999C29.36 3.27999 30 3.19999 31.92 3.19999C34.1421 3.07134 36.3518 3.61252 38.2629 4.75353C40.1741 5.89453 41.6989 7.58284 42.64 9.59999H45.76C48.96 9.59999 49.44 9.59999 50.64 9.99999C51.84 10.4 52.72 11.04 53.68 12C54.96 13.28 55.76 14.72 56 16.48L56.08 24.32C56.08 30.96 56.08 32 56.24 31.6L61.68 18.72C62.24 17.68 63.12 16.88 64.24 16.32C67.36 14.88 70.88 16.48 72 19.92C72.16 20.32 72.16 20.56 72.16 21.52C72.16 22.4 72.16 22.64 72 23.2C67.8322 33.5187 63.5385 43.7861 59.12 54C58.8 54.32 53.36 58.64 52.72 58.96C52.32 59.2 51.84 59.28 51.2 58.96C50.48 58.72 50.16 58.48 50 58.16C49.76 57.76 49.76 57.76 49.2 53.36C48.72 50.32 48.72 50.08 48.88 49.68C48.88 49.44 49.84 47.12 50.88 44.64L52.88 40V19.28L51.68 19.2C50.56 19.2 50.48 19.2 50.4 19.36C50.24 20 50 20.32 49.6 20.56C49.36 20.64 48.08 20.72 30.24 20.72L11.2 20.8V65.6H52.88V63.36C52.88 61.68 52.96 61.12 53.04 60.96C53.6 59.92 54.88 59.76 55.6 60.56C56.16 61.12 56.08 60.96 56.16 64.88C56.16 68.96 56.08 69.92 55.76 70.88C55.36 72.32 54.8 73.36 53.68 74.4C52.5497 75.605 51.0642 76.4177 49.44 76.72L32.4 76.8H15.68ZM54.56 53.6L56.24 52.16C54.8806 51.5582 53.4922 51.0242 52.08 50.56C52.2462 52.0331 52.4596 53.5005 52.72 54.96L54.56 53.6ZM62.56 37.52L67.6 25.2C67.6 25.12 63.28 23.36 63.2 23.44L53.04 48C53.04 48.16 57.28 49.92 57.44 49.84L62.56 37.52ZM41.12 57.92C40.8 57.76 40.4 57.36 40.32 57.12V51.6L40.56 51.36C41.04 50.8 40.96 50.8 44 50.8C46.72 50.8 46.8 50.88 47.04 51.04L47.36 51.44C47.52 51.68 47.6 51.84 47.6 54.48V57.2L47.36 57.44L46.8 57.92C46.48 58.08 46.32 58.08 43.92 58.08C41.76 58.08 41.44 58.08 41.12 57.92ZM45.12 55.6L45.2 54.4L45.12 53.28L43.92 53.2L42.8 53.28L42.72 54.48L42.8 55.6L44 55.68L45.12 55.6ZM16.96 57.76C16.32 57.36 16.16 56.56 16.56 56.08C17.04 55.52 16.4 55.52 25.44 55.52C33.12 55.52 33.68 55.52 33.92 55.68C34.8 56.08 34.8 57.36 33.92 57.76C33.68 57.92 33.12 57.92 25.44 57.92C17.52 57.92 17.2 57.92 16.96 57.76ZM16.96 53.28C16.32 52.88 16.16 52.08 16.56 51.6C17.04 51.04 16.64 51.04 22.88 51.04C29.2 51.04 28.88 51.04 29.28 51.6C29.52 52.08 29.52 52.4 29.28 52.88C28.88 53.44 29.2 53.44 22.88 53.44C17.52 53.44 17.2 53.44 16.96 53.28ZM31.84 53.28C31.2 52.88 31.04 52.08 31.44 51.6C31.76 51.12 32.08 51.04 32.8 51.04C33.36 51.04 33.52 51.04 33.76 51.2C34.16 51.52 34.4 51.84 34.4 52.24C34.4 52.64 34.16 52.96 33.76 53.28C33.44 53.52 32.24 53.52 31.84 53.28ZM41.28 46.72C40.88 46.56 40.72 46.4 40.56 46C40.32 45.52 40.32 40.72 40.48 40.4C40.88 39.76 41.76 39.52 42.32 40C42.8 40.4 42.88 40.48 42.8 42.48L42.88 44.4L44.56 44.48C46.4 44.4 46.72 44.48 47.12 44.8C47.6 45.28 47.6 45.92 47.2 46.4C46.8 46.88 46.8 46.88 44.08 46.88C41.84 46.88 41.52 46.88 41.2 46.72H41.28ZM16.96 46.56C16.32 46.16 16.16 45.36 16.56 44.88C17.04 44.32 16.72 44.32 22.56 44.32H27.84L28.08 44.48C28.48 44.8 28.72 45.12 28.72 45.52C28.72 45.92 28.48 46.24 28.08 46.56L27.84 46.72H22.56C17.44 46.72 17.2 46.72 16.96 46.56ZM44 43.68C43.44 43.44 43.2 42.8 43.44 42.24L46 39.6C48.72 36.96 48.72 36.96 49.36 37.28C49.68 37.44 49.76 37.52 49.92 37.84C50.24 38.48 50.24 38.48 47.6 41.2C46.32 42.48 45.12 43.68 44.96 43.68C44.64 43.84 44.32 43.84 44 43.68ZM16.96 42.08C16.32 41.68 16.16 40.88 16.56 40.4C16.96 39.92 17.12 39.84 18.48 39.84C19.84 39.84 20 39.92 20.4 40.4C20.8 40.96 20.56 41.76 19.92 42.16L18.48 42.24C17.44 42.24 17.2 42.24 16.96 42.08ZM22.8 42.08C22.16 41.68 22 40.88 22.4 40.4C22.88 39.84 22.64 39.84 27.44 39.84H31.84L32.08 40C32.48 40.32 32.72 40.64 32.72 41.04C32.72 41.44 32.48 41.76 32.08 42.08L31.84 42.24H27.44C23.28 42.24 23.04 42.24 22.8 42.08ZM41.28 35.52C40.88 35.36 40.72 35.2 40.56 34.8C40.32 34.32 40.32 29.52 40.48 29.2C40.88 28.56 41.76 28.32 42.32 28.8C42.8 29.2 42.88 29.28 42.8 31.28L42.88 33.2L44.8 33.28C46.64 33.2 46.72 33.28 47.12 33.68C47.6 34.08 47.6 34.72 47.2 35.2C46.8 35.68 46.8 35.68 44.08 35.68C41.84 35.68 41.52 35.68 41.2 35.52H41.28ZM16.96 35.44C16.32 35.04 16.16 34.24 16.56 33.76C17.04 33.2 16.4 33.2 25.68 33.2C33.68 33.2 34.08 33.2 34.32 33.36C34.64 33.52 34.96 34 34.96 34.4C34.96 34.8 34.64 35.28 34.32 35.44C34.08 35.6 33.68 35.6 25.68 35.6C17.52 35.6 17.2 35.6 16.96 35.44ZM44 32.56C43.44 32.32 43.2 31.68 43.44 31.12L46 28.48C48.72 25.84 48.72 25.84 49.36 26.16C49.68 26.32 49.76 26.4 49.92 26.72C50.24 27.36 50.24 27.36 47.6 30.08C46.32 31.36 45.12 32.56 44.96 32.56C44.64 32.72 44.32 32.72 44 32.56ZM16.96 30.72C16.32 30.32 16.16 29.52 16.56 29.04C16.96 28.48 16.96 28.48 20.48 28.48C24 28.48 24.08 28.48 24.4 28.96C24.64 29.36 24.64 30 24.4 30.4C24.08 30.88 24 30.88 20.48 30.88C17.44 30.88 17.2 30.88 16.96 30.72Z" fill="#AAD5DF"/>
<path d="M15.28 76.7201C13.04 76.4801 11.12 75.4401 9.67996 73.6801C8.87996 72.6401 8.31996 71.3601 8.07996 70.0001C7.91996 69.2801 7.91996 17.1201 8.07996 16.4001C8.63996 13.2001 11.04 10.6401 14.16 9.92009C14.96 9.68009 15.36 9.68009 18.24 9.68009L21.2 9.60009C21.28 9.60009 21.52 9.28009 21.68 8.88009C22.88 6.64009 25.04 4.88009 27.76 3.92009C29.28 3.36009 30 3.28009 32 3.28009C34.0692 3.16174 36.1296 3.63256 37.9421 4.63792C39.7546 5.64328 41.2448 7.14197 42.24 8.96009L42.72 9.60009L45.68 9.68009H49.04C50.7394 9.9225 52.3192 10.6947 53.5544 11.8868C54.7896 13.079 55.6174 14.6303 55.92 16.3201L56 24.2401C56 31.0401 56 32.0801 56.16 31.9201C58.0243 27.6485 59.8378 23.3549 61.6 19.0401C62.1012 18.0515 62.8845 17.2339 63.8506 16.6908C64.8168 16.1477 65.9224 15.9036 67.0275 15.9892C68.1325 16.0749 69.1873 16.4865 70.0582 17.1721C70.9292 17.8576 71.5771 18.7861 71.92 19.8401C72.08 20.3201 72.08 20.4801 72.08 21.4401C72.08 22.8001 72.08 22.9601 70.88 25.8401C66.9402 35.1918 63.0202 44.5518 59.12 53.9201L56.96 55.6801L54.8 57.4401C54.16 58.0001 52.72 59.0401 52.4 59.1201C52 59.2001 51.84 59.2001 51.2 58.9601C50.48 58.7201 50.16 58.4801 50 58.1601C49.76 57.7601 49.76 57.7601 49.2 53.3601C48.72 50.3201 48.72 50.0801 48.88 49.6801C48.88 49.4401 49.84 47.1201 50.88 44.6401L52.88 40.0001V16.8801L52.64 16.3201C52.4 15.5201 52 14.8001 51.36 14.1601C50.72 13.6001 50.16 13.2801 49.44 13.0401C48.96 12.8801 48.72 12.8801 46.08 12.8001L43.28 12.8801L43.12 13.8401C42.96 14.8001 42.8 15.2001 42.4 15.5201C41.92 16.0001 41.84 16.0001 38.56 16.0001C35.76 16.0001 35.44 16.0001 35.12 15.8401C34.72 15.6801 34.32 15.2001 34.24 14.7201L34.16 14.4001H32.56L32.48 14.7201C32.32 15.5201 31.6 16.0001 30.72 16.0001C29.84 16.0001 29.2 15.5201 28.96 14.7201L28.88 14.4001H27.2L27.12 14.7201C27.04 15.2001 26.64 15.6801 26.24 15.8401C25.92 16.0001 25.68 16.0001 24.08 16.0001C22.64 16.0001 22.24 16.0001 22 15.8401C21.36 15.6001 21.04 15.0401 20.8 13.9201C20.8 13.3601 20.72 12.9601 20.64 12.8801L17.84 12.8001C15.28 12.8801 15.04 12.8801 14.56 13.0401C13.2 13.5201 11.92 14.6401 11.44 16.0001C11.28 16.4001 11.12 17.2801 11.2 17.4401L30.16 17.5201C47.12 17.5201 49.12 17.5201 49.44 17.6801C50.64 18.1601 50.72 19.9201 49.52 20.5601C49.36 20.6401 47.76 20.7201 30.24 20.7201L11.12 20.8001V65.6001H52.88V63.3601C52.96 60.9601 52.96 60.8801 53.44 60.4001L54.16 60.0801C54.48 60.0001 54.56 60.0001 54.96 60.1601C55.44 60.4001 55.68 60.5601 55.84 60.9601C56 61.2801 56 61.3601 56 65.4401C56 69.6801 56 70.0001 55.6 71.1201C55.12 72.7201 54.24 73.9201 52.96 74.9601C51.8787 75.8451 50.5806 76.4251 49.2 76.6401C48.72 76.7201 16.24 76.8001 15.28 76.7201ZM49.44 73.3601C50.88 72.8801 52.08 71.7601 52.56 70.4001C52.72 69.9201 52.88 69.0401 52.8 68.8801C52.8 68.7201 11.2 68.7201 11.2 68.8801V69.5201C11.52 71.4401 13.28 73.2801 15.28 73.5201L32.32 73.6001H48.96L49.44 73.3601ZM54.56 53.6001L56.24 52.1601C54.8806 51.5583 53.4922 51.0243 52.08 50.5601C52.2462 52.0332 52.4596 53.5006 52.72 54.9601L54.56 53.6001ZM62.56 37.5201L67.6 25.2001C67.6 25.1201 63.28 23.3601 63.2 23.4401L53.04 48.0001C53.04 48.1601 57.28 49.9201 57.44 49.8401L62.56 37.5201ZM41.12 57.9201C40.8 57.7601 40.4 57.3601 40.32 57.1201V51.6001L40.56 51.3601C41.04 50.8001 40.96 50.8001 44 50.8001C46.72 50.8001 46.8 50.8801 47.04 51.0401L47.36 51.4401C47.52 51.6801 47.6 51.8401 47.6 54.4801V57.2001L47.36 57.4401L46.8 57.9201C46.48 58.0801 46.32 58.0801 43.92 58.0801C41.76 58.0801 41.44 58.0801 41.12 57.9201ZM45.12 55.6001L45.2 54.4001L45.12 53.2801L43.92 53.2001L42.8 53.2801L42.72 54.4801L42.8 55.6001L44 55.6801L45.12 55.6001ZM16.96 57.7601C16.32 57.3601 16.16 56.5601 16.56 56.0801C17.04 55.5201 16.4 55.5201 25.44 55.5201C33.12 55.5201 33.68 55.5201 33.92 55.6801C34.8 56.0801 34.8 57.3601 33.92 57.7601C33.68 57.9201 33.12 57.9201 25.44 57.9201C17.52 57.9201 17.2 57.9201 16.96 57.7601ZM16.96 53.2801C16.32 52.8801 16.16 52.0801 16.56 51.6001C17.04 51.0401 16.64 51.0401 22.88 51.0401C29.2 51.0401 28.88 51.0401 29.28 51.6001C29.52 52.0801 29.52 52.4001 29.28 52.8801C28.88 53.4401 29.2 53.4401 22.88 53.4401C17.52 53.4401 17.2 53.4401 16.96 53.2801ZM31.84 53.2801C31.2 52.8801 31.04 52.0801 31.44 51.6001C31.76 51.1201 32.08 51.0401 32.8 51.0401C33.36 51.0401 33.52 51.0401 33.76 51.2001C34.16 51.5201 34.4 51.8401 34.4 52.2401C34.4 52.6401 34.16 52.9601 33.76 53.2801C33.44 53.5201 32.24 53.5201 31.84 53.2801ZM41.28 46.7201C40.88 46.5601 40.72 46.4001 40.56 46.0001C40.32 45.5201 40.32 40.7201 40.48 40.4001C40.88 39.7601 41.76 39.5201 42.32 40.0001C42.8 40.4001 42.88 40.4801 42.8 42.4801L42.88 44.4001L44.56 44.4801C46.4 44.4001 46.72 44.4801 47.12 44.8001C47.6 45.2801 47.6 45.9201 47.2 46.4001C46.8 46.8801 46.8 46.8801 44.08 46.8801C41.84 46.8801 41.52 46.8801 41.2 46.7201H41.28ZM16.96 46.5601C16.32 46.1601 16.16 45.3601 16.56 44.8801C17.04 44.3201 16.72 44.3201 22.56 44.3201H27.84L28.08 44.4801C28.48 44.8001 28.72 45.1201 28.72 45.5201C28.72 45.9201 28.48 46.2401 28.08 46.5601L27.84 46.7201H22.56C17.44 46.7201 17.2 46.7201 16.96 46.5601ZM44 43.6801C43.44 43.4401 43.2 42.8001 43.44 42.2401L46 39.6001C48.72 36.9601 48.72 36.9601 49.36 37.2801C49.68 37.4401 49.76 37.5201 49.92 37.8401C50.24 38.4801 50.24 38.4801 47.6 41.2001C46.32 42.4801 45.12 43.6801 44.96 43.6801C44.64 43.8401 44.32 43.8401 44 43.6801ZM16.96 42.0801C16.32 41.6801 16.16 40.8801 16.56 40.4001C16.96 39.9201 17.12 39.8401 18.48 39.8401C19.84 39.8401 20 39.9201 20.4 40.4001C20.8 40.9601 20.56 41.7601 19.92 42.1601L18.48 42.2401C17.44 42.2401 17.2 42.2401 16.96 42.0801ZM22.8 42.0801C22.16 41.6801 22 40.8801 22.4 40.4001C22.88 39.8401 22.64 39.8401 27.44 39.8401H31.84L32.08 40.0001C32.48 40.3201 32.72 40.6401 32.72 41.0401C32.72 41.4401 32.48 41.7601 32.08 42.0801L31.84 42.2401H27.44C23.28 42.2401 23.04 42.2401 22.8 42.0801ZM41.28 35.5201C40.88 35.3601 40.72 35.2001 40.56 34.8001C40.32 34.3201 40.32 29.5201 40.48 29.2001C40.88 28.5601 41.76 28.3201 42.32 28.8001C42.8 29.2001 42.88 29.2801 42.8 31.2801L42.88 33.2001L44.8 33.2801C46.64 33.2001 46.72 33.2801 47.12 33.6801C47.6 34.0801 47.6 34.7201 47.2 35.2001C46.8 35.6801 46.8 35.6801 44.08 35.6801C41.84 35.6801 41.52 35.6801 41.2 35.5201H41.28ZM16.96 35.4401C16.32 35.0401 16.16 34.2401 16.56 33.7601C17.04 33.2001 16.4 33.2001 25.68 33.2001C33.68 33.2001 34.08 33.2001 34.32 33.3601C34.64 33.5201 34.96 34.0001 34.96 34.4001C34.96 34.8001 34.64 35.2801 34.32 35.4401C34.08 35.6001 33.68 35.6001 25.68 35.6001C17.52 35.6001 17.2 35.6001 16.96 35.4401ZM44 32.5601C43.44 32.3201 43.2 31.6801 43.44 31.1201L46 28.4801C48.72 25.8401 48.72 25.8401 49.36 26.1601C49.68 26.3201 49.76 26.4001 49.92 26.7201C50.24 27.3601 50.24 27.3601 47.6 30.0801C46.32 31.3601 45.12 32.5601 44.96 32.5601C44.64 32.7201 44.32 32.7201 44 32.5601ZM16.96 30.7201C16.32 30.3201 16.16 29.5201 16.56 29.0401C16.96 28.4801 16.96 28.4801 20.48 28.4801C24 28.4801 24.08 28.4801 24.4 28.9601C24.64 29.3601 24.64 30.0001 24.4 30.4001C24.08 30.8801 24 30.8801 20.48 30.8801C17.44 30.8801 17.2 30.8801 16.96 30.7201Z" fill="#F6B18A"/>
<path d="M15.28 76.7201C13.04 76.4801 11.12 75.4401 9.67996 73.6801C8.87996 72.6401 8.31996 71.3601 8.07996 70.0001C7.91996 69.2801 7.91996 17.1201 8.07996 16.4001C8.63996 13.2001 11.04 10.6401 14.16 9.92009C14.96 9.68009 15.36 9.68009 18.24 9.68009L21.2 9.60009C21.28 9.60009 21.52 9.28009 21.68 8.88009C22.88 6.64009 25.04 4.88009 27.76 3.92009C29.28 3.36009 30 3.28009 32 3.28009C34.0692 3.16174 36.1296 3.63256 37.9421 4.63792C39.7546 5.64328 41.2448 7.14197 42.24 8.96009L42.72 9.60009L45.68 9.68009H49.04C50.7394 9.9225 52.3192 10.6947 53.5544 11.8868C54.7896 13.079 55.6174 14.6303 55.92 16.3201L56 24.2401C56 31.0401 56 32.0801 56.16 31.9201C58.0243 27.6485 59.8378 23.3549 61.6 19.0401C62.1012 18.0515 62.8845 17.2339 63.8506 16.6908C64.8168 16.1477 65.9224 15.9036 67.0275 15.9892C68.1325 16.0749 69.1873 16.4865 70.0582 17.1721C70.9292 17.8576 71.5771 18.7861 71.92 19.8401C72.08 20.3201 72.08 20.4801 72.08 21.4401C72.08 22.8001 72.08 22.9601 70.88 25.8401C66.9402 35.1918 63.0202 44.5518 59.12 53.9201L56.8 55.8401C55.3858 56.9056 53.9724 57.9723 52.56 59.0401C52.16 59.2001 51.68 59.1201 51.04 58.8801C50.32 58.5601 50.08 58.4001 49.92 57.9201C49.76 57.5201 48.8 50.4801 48.8 49.9201L50.88 44.8001L52.88 40.0801V16.8801L52.64 16.3201C52.4 15.5201 52 14.8001 51.36 14.1601C50.72 13.6001 50.16 13.2801 49.44 13.0401C48.96 12.8801 48.72 12.8801 46.08 12.8001L43.28 12.8801L43.12 13.8401C42.96 14.8001 42.8 15.2001 42.4 15.5201C41.92 16.0001 41.84 16.0001 38.56 16.0001C35.76 16.0001 35.44 16.0001 35.12 15.8401C34.72 15.6801 34.32 15.2001 34.24 14.7201L34.16 14.4001H32.56L32.48 14.7201C32.32 15.5201 31.6 16.0001 30.72 16.0001C29.84 16.0001 29.2 15.5201 28.96 14.7201L28.88 14.4001H27.2L27.12 14.7201C27.04 15.2001 26.64 15.6801 26.24 15.8401C25.92 16.0001 25.68 16.0001 24.08 16.0001C22.64 16.0001 22.24 16.0001 22 15.8401C21.36 15.6001 21.04 15.0401 20.8 13.9201C20.8 13.3601 20.72 12.9601 20.64 12.8801L17.84 12.8001C15.28 12.8801 15.04 12.8801 14.56 13.0401C13.2 13.5201 11.92 14.6401 11.44 16.0001C11.28 16.4001 11.12 17.2801 11.2 17.4401L30.16 17.5201C47.12 17.5201 49.12 17.5201 49.44 17.6801C50.56 18.0801 50.72 19.5201 49.84 20.3201L49.2 20.6401L30 20.7201H11.12V65.6001H52.88V63.4401C52.88 61.2801 52.96 61.2001 53.12 60.8801C53.76 59.7601 55.28 59.8401 55.84 60.9601C56 61.2801 56 61.3601 56 65.4401C56 69.6801 56 70.0001 55.6 71.1201C55.12 72.7201 54.24 73.9201 52.96 74.9601C51.8787 75.8451 50.5806 76.4251 49.2 76.6401C48.72 76.7201 16.24 76.8001 15.28 76.7201ZM49.44 73.3601C50.88 72.8801 52.08 71.7601 52.56 70.4001C52.72 69.9201 52.88 69.0401 52.8 68.8801C52.8 68.7201 11.2 68.7201 11.2 68.8801V69.5201C11.52 71.4401 13.28 73.2801 15.28 73.5201L32.32 73.6001H48.96L49.44 73.3601ZM54.48 53.6801L56.32 52.2401C56.32 52.0801 52.32 50.4001 52.08 50.4001C52 50.4001 51.92 50.2401 52.32 52.7201L52.64 55.0401L54.48 53.6801ZM62.56 37.6801L67.6 25.2801C67.6 25.1201 67.28 24.9601 65.44 24.1601C63.68 23.4401 63.2 23.2801 63.12 23.3601L52.96 48.0801C53.04 48.1601 57.2 50.0001 57.36 49.9201L62.56 37.6801ZM68.88 22.3201C69.36 21.0401 68.8 19.7601 67.6 19.2801C66.32 18.7201 65.04 19.2001 64.4 20.4001L64.16 21.0401C64.24 21.1201 68.24 22.8801 68.48 22.8801C68.64 22.8801 68.72 22.7201 68.88 22.3201ZM41.28 57.9201C40.88 57.7601 40.4 57.2801 40.32 56.8801C40.2599 55.1185 40.3133 53.3548 40.48 51.6001C40.72 51.2001 40.96 50.9601 41.28 50.8801H46.64C47.04 50.9601 47.44 51.4401 47.52 51.9201L47.6 54.7201V57.1201L47.36 57.3601L46.8 57.8401C46.56 58.0001 46.48 58.0801 44.08 58.0801C42.08 58.0801 41.6 58.0801 41.28 57.9201ZM45.2 54.4801V53.2001H42.72V55.6801H45.2V54.4801ZM17.28 57.8401C16.96 57.7601 16.64 57.5201 16.48 57.2001C16.24 56.7201 16.48 56.0801 16.96 55.7601C17.2 55.6001 17.2 55.6001 25.52 55.6001C33.68 55.6001 33.76 55.6001 34 55.7601C34.4 56.0001 34.48 56.3201 34.48 56.7201C34.48 57.1201 34.4 57.4401 34 57.6801C33.76 57.8401 33.68 57.9201 25.6 57.9201L17.28 57.8401ZM17.28 53.3601C16.96 53.2801 16.64 53.0401 16.48 52.7201C16.24 52.2401 16.48 51.6001 16.96 51.2801C17.2 51.1201 17.28 51.0401 22.8 51.0401H28.4L28.72 51.2001C29.6 51.6801 29.6 52.8001 28.72 53.2801L28.4 53.4401H22.96L17.28 53.3601ZM32.16 53.3601C31.68 53.2001 31.28 52.7201 31.28 52.2401C31.28 51.9201 31.52 51.5201 31.84 51.2801C32.16 51.0401 33.12 50.9601 33.6 51.1201C34.56 51.5201 34.56 52.8801 33.68 53.2801C33.28 53.4401 32.56 53.5201 32.16 53.3601ZM41.44 46.8001C41.04 46.6401 40.8 46.4001 40.56 46.0001C40.48 45.8401 40.4 45.4401 40.4 43.2001C40.4 40.6401 40.48 40.5601 40.64 40.3201C41.2 39.6001 42 39.6001 42.56 40.3201C42.72 40.5601 42.8 40.7201 42.8 42.5601V44.4801H44.72C46.4 44.4801 46.64 44.5601 46.88 44.6401C47.68 45.2001 47.6 46.3201 46.8 46.7201C46.48 46.8801 46.24 46.8801 44.08 46.8801L41.44 46.8001ZM17.28 46.6401C16.96 46.5601 16.64 46.3201 16.48 46.0001C16.24 45.5201 16.48 44.8801 16.96 44.5601C17.2 44.4001 17.28 44.3201 22.4 44.3201C27.6 44.3201 27.6 44.3201 28 44.4801C28.88 44.8801 28.88 46.0801 28 46.5601C27.6 46.7201 27.52 46.7201 22.56 46.7201L17.28 46.6401ZM17.28 42.1601C16.56 41.9201 16.16 41.0401 16.56 40.4801C16.96 39.9201 17.04 39.9201 18.48 39.9201C19.68 39.9201 19.76 39.9201 20 40.0801C20.72 40.6401 20.72 41.4401 20 42.0001C19.76 42.1601 19.6 42.2401 18.64 42.2401L17.28 42.1601ZM23.12 42.1601C22.8 42.0801 22.48 41.8401 22.32 41.5201C22.08 41.0401 22.32 40.4001 22.8 40.0801C23.04 39.9201 23.12 39.8401 27.36 39.8401C31.52 39.8401 31.6 39.8401 32 40.0001C32.88 40.4001 32.88 41.6001 32 42.0801C31.6 42.2401 31.52 42.2401 27.44 42.2401L23.12 42.1601ZM41.44 35.6001C41.04 35.4401 40.8 35.2001 40.56 34.8801C40.48 34.6401 40.4 34.2401 40.4 32.0001C40.4 29.4401 40.48 29.3601 40.64 29.1201C41.2 28.4001 42 28.4001 42.56 29.1201C42.72 29.3601 42.8 29.5201 42.8 31.3601V33.2801H44.72C46.32 33.2801 46.64 33.3601 46.88 33.4401C47.68 33.9201 47.6 35.1201 46.8 35.5201C46.48 35.6801 46.24 35.6801 44.08 35.6801L41.44 35.6001ZM17.28 35.5201C16.96 35.4401 16.64 35.2001 16.48 34.8801C16.24 34.4001 16.48 33.7601 16.96 33.4401C17.2 33.2801 17.2 33.2001 25.52 33.2001C32.96 33.2001 33.84 33.2001 34.16 33.3601C34.56 33.4401 34.8 33.7601 34.88 34.1601C34.96 34.4001 34.96 34.4801 34.8 34.8801L34.24 35.4401L33.92 35.6001H25.68L17.28 35.5201ZM17.28 30.8001C16.96 30.7201 16.64 30.4801 16.48 30.1601C16.24 29.6801 16.48 29.0401 16.96 28.7201C17.2 28.5601 17.28 28.4801 20.48 28.4801H23.84L24.16 28.8001C24.32 28.8801 24.48 29.1201 24.56 29.3601V30.0001C24.48 30.2401 24.32 30.4801 24.16 30.5601L23.84 30.8001L20.64 30.8801L17.28 30.8001Z" fill="#94A19F"/>
<path d="M14.96 76.5601C14.24 76.4801 13.28 76.1601 12.56 75.8401C10.48 74.8001 8.88003 72.8801 8.32003 70.6401L8.16003 70.0001V16.4801L8.32003 15.76C8.88003 13.52 10.48 11.6 12.56 10.56C14.08 9.84005 14.16 9.84005 17.92 9.76005H21.28L21.76 9.04005C22.8 6.88005 24.88 5.04005 27.36 4.08005C30.24 3.04005 33.68 3.04005 36.48 4.08005C38.96 5.04005 41.12 6.88005 42.16 9.04005L42.64 9.76005H46.08C49.84 9.84005 49.92 9.84005 51.44 10.56C53.04 11.36 54.32 12.64 55.12 14.16C55.92 15.92 55.84 15.2 55.92 24.24C55.9605 26.8811 56.0405 29.5214 56.16 32.1601C58.1276 27.7766 59.9948 23.3488 61.76 18.88C62.2895 17.9174 63.0943 17.1346 64.0713 16.6319C65.0483 16.1292 66.153 15.9296 67.2442 16.0584C68.3353 16.1873 69.3631 16.6389 70.1961 17.3553C71.0291 18.0718 71.6294 19.0205 71.92 20.08C72.08 20.8801 72.08 22.24 71.84 23.1201L68.16 32.0801C65.0901 39.3587 62.0235 46.6387 58.96 53.9201L56.64 55.8401L53.68 58.0801C52.32 59.1201 52.08 59.2001 51.12 58.8001C50.4 58.4801 50.16 58.2401 50 57.8401C49.84 57.3601 48.88 50.0801 48.96 49.8401L50.96 44.8001L52.96 40V28.5601L52.88 16.5601C52.48 15.12 51.52 13.92 50.24 13.2C49.28 12.72 48.96 12.72 45.92 12.72C42.8 12.72 43.04 12.64 43.04 13.28L42.88 14.32C42.72 15.04 42.48 15.4401 41.92 15.68C39.7989 15.9659 37.6528 16.0195 35.52 15.84C34.88 15.68 34.48 15.28 34.32 14.5601C34.24 14.08 34.4 13.6 34.8 13.2C35.28 12.88 35.68 12.8 38 12.8H40V12.16C39.92 10.96 39.44 9.92005 38.48 8.88005C36.88 7.20005 34.64 6.32005 31.92 6.32005C29.28 6.32005 27.04 7.20005 25.52 8.88005C24.608 9.74418 24.0396 10.9093 23.92 12.16V12.8H24.96C26.08 12.88 26.24 12.96 26.72 13.36C27.04 13.76 27.12 14.08 27.04 14.5601C26.88 15.2 26.56 15.6 26 15.76C25.52 15.92 22.88 16 22.32 15.84C21.92 15.76 21.6 15.5201 21.36 15.12C21.12 14.8 20.88 13.76 20.88 13.28C20.88 12.64 21.12 12.72 18.08 12.72C15.04 12.72 14.72 12.72 13.76 13.2C12.48 13.92 11.44 15.12 11.12 16.4801L11.04 17.2801L11.12 17.6H30.16L49.2 17.68L49.52 17.84C50.48 18.3201 50.56 19.76 49.6 20.32L49.28 20.5601H30.24L11.12 20.6401C11.04 20.8001 10.96 24.4001 10.96 43.2001C10.96 63.0401 11.04 65.6001 11.12 65.6801H52.88L52.96 63.4401C53.04 61.4401 53.04 61.2801 53.2 60.9601C53.36 60.5601 53.84 60.2401 54.24 60.1601C54.88 60.0801 55.76 60.7201 55.92 61.2801V65.7601C55.84 70.7201 55.92 70.5601 55.12 72.2401C54.6073 73.2546 53.8862 74.1495 53.0039 74.8664C52.1217 75.5832 51.0981 76.1058 50 76.4001L49.36 76.5601L32.24 76.6401L14.96 76.5601ZM49.2 73.5201C50.56 73.2801 51.84 72.2401 52.48 70.8801C52.72 70.3201 52.96 69.4401 52.96 69.0401V68.8001H11.12L11.04 69.0401C11.04 69.4401 11.28 70.3201 11.52 70.8801C12.16 72.1601 13.44 73.2001 14.8 73.5201C15.52 73.7601 48.48 73.7601 49.2 73.5201ZM54.64 53.6801L56.48 52.1601L54.24 51.1201L52 50.3201L51.92 50.5601C52.1167 52.0866 52.3568 53.6072 52.64 55.1201L54.64 53.6801ZM57.52 50.0001C60.9922 41.7419 64.3791 33.4481 67.68 25.1201C67.6 24.9601 63.28 23.2001 63.2 23.2801L62.08 25.68C59.0145 33.1472 55.9478 40.6138 52.88 48.0801L53.36 48.4001C54.7408 48.9485 56.1276 49.4819 57.52 50.0001ZM68.96 22.4001C69.28 21.2801 69.04 20.32 68.24 19.6C67.7677 19.1658 67.1454 18.9315 66.5039 18.9464C65.8624 18.9613 65.2517 19.2243 64.8 19.68C64.4 20.08 64 20.8801 64.16 21.1201C64.24 21.2801 68.32 22.9601 68.56 22.9601C68.72 22.9601 68.8 22.8001 68.96 22.4001ZM41.04 57.6801C40.48 57.3601 40.48 57.3601 40.48 54.4001C40.48 51.5201 40.48 51.4401 40.96 51.1201C41.2 50.9601 41.44 50.9601 43.92 50.9601C47.04 50.9601 46.96 50.9601 47.28 51.6001C47.44 51.8401 47.44 52.0801 47.44 54.4801V57.1201L47.2 57.4401C46.72 57.9201 46.72 57.9201 43.92 57.9201H41.36L41.04 57.6801ZM45.28 54.4801V53.2001H42.72L42.64 54.3201V55.6801L44 55.7601H45.28V54.4801ZM16.96 57.6001C16.72 57.4401 16.48 57.0401 16.48 56.7201C16.48 56.4001 16.72 56.0001 16.96 55.8401C17.2 55.6801 17.52 55.6801 25.44 55.6801C33.6 55.6801 33.68 55.6801 34 55.8401C34.16 55.9201 34.24 56.1601 34.4 56.4001V57.0401C34.24 57.2801 34.16 57.5201 34 57.6001C33.68 57.7601 33.6 57.7601 25.44 57.7601C17.52 57.7601 17.2 57.7601 16.96 57.6001ZM16.96 53.1201C16.72 52.9601 16.48 52.5601 16.48 52.2401C16.48 51.9201 16.72 51.5201 16.96 51.3601C17.2 51.2001 17.44 51.2001 22.96 51.2001L28.72 51.2801L28.96 51.5201C29.2 51.7601 29.28 51.8401 29.28 52.2401C29.28 52.6401 29.2 52.7201 28.96 52.9601L28.72 53.2801H22.96C17.44 53.2801 17.2 53.2801 16.96 53.1201ZM31.84 53.1201C31.6 52.9601 31.36 52.5601 31.36 52.2401C31.36 51.9201 31.6 51.5201 31.84 51.3601C32.08 51.2001 32.24 51.2001 32.8 51.2001C33.6 51.2001 33.92 51.3601 34.08 51.7601C34.4 52.2401 34.24 52.8001 33.76 53.1201C33.36 53.3601 32.24 53.3601 31.84 53.1201ZM41.2 46.5601C40.96 46.4801 40.8 46.2401 40.72 46.0801C40.56 45.7601 40.56 45.6001 40.56 43.2001C40.56 40.8001 40.56 40.5601 40.72 40.3201C41.04 39.84 41.76 39.68 42.24 40.0801C42.64 40.4001 42.64 40.4801 42.72 42.5601L42.8 44.5601H44.72C46.4 44.5601 46.64 44.6401 46.8 44.7201C47.52 45.2001 47.52 46.1601 46.88 46.5601C46.64 46.7201 46.48 46.7201 44 46.7201C41.68 46.7201 41.44 46.7201 41.2 46.5601ZM16.96 46.4001C16.72 46.2401 16.48 45.8401 16.48 45.5201C16.48 45.2001 16.72 44.8001 16.96 44.6401C17.2 44.4801 17.52 44.4801 22.56 44.4801C27.6 44.4801 27.84 44.4801 28.08 44.6401C28.72 45.0401 28.72 46.0001 28.08 46.4001C27.84 46.5601 27.6 46.5601 22.56 46.5601C17.52 46.5601 17.2 46.5601 16.96 46.4001ZM16.96 41.9201C16.72 41.7601 16.48 41.3601 16.48 41.0401C16.48 40.7201 16.72 40.3201 16.96 40.1601C17.2 40 17.44 40 18.48 40C19.52 40 19.76 40 20 40.1601C20.24 40.3201 20.48 40.7201 20.48 41.0401C20.48 41.3601 20.24 41.7601 20 41.9201C19.76 42.0801 19.52 42.0801 18.48 42.0801C17.44 42.0801 17.2 42.0801 16.96 41.9201ZM22.8 41.9201C22.56 41.7601 22.32 41.3601 22.32 41.0401C22.32 40.7201 22.56 40.3201 22.8 40.1601C23.04 40 23.28 40 27.44 40C31.6 40 31.84 40 32.08 40.1601C32.16 40.2401 32.4 40.4001 32.4 40.5601C32.72 41.0401 32.56 41.6001 32.08 41.9201C31.84 42.0801 31.6 42.0801 27.44 42.0801C23.28 42.0801 23.04 42.0801 22.8 41.9201ZM41.2 35.3601C40.96 35.2801 40.8 35.0401 40.72 34.8801C40.56 34.5601 40.56 34.4001 40.56 32.0001C40.56 29.6 40.56 29.3601 40.72 29.1201C41.04 28.6401 41.76 28.4801 42.24 28.8801C42.64 29.2001 42.64 29.2801 42.72 31.3601L42.8 33.3601H44.72C46.56 33.3601 46.64 33.4401 46.88 33.6001C47.52 34.0801 47.52 34.9601 46.88 35.3601C46.64 35.5201 46.48 35.5201 44.08 35.5201C41.68 35.5201 41.44 35.5201 41.2 35.3601ZM16.96 35.2801C16.72 35.1201 16.48 34.7201 16.48 34.4001C16.48 34.0801 16.72 33.6801 16.96 33.5201C17.2 33.3601 17.52 33.3601 25.76 33.3601L34.24 33.4401L34.48 33.6801C34.72 33.9201 34.8 34.0001 34.8 34.4001C34.8 34.8001 34.72 34.8801 34.48 35.1201L34.24 35.4401H25.76C17.52 35.4401 17.2 35.4401 16.96 35.2801ZM16.96 30.5601C16.72 30.4001 16.48 30.0001 16.48 29.68C16.48 29.3601 16.72 28.9601 16.96 28.8001C17.2 28.6401 17.44 28.6401 20.56 28.6401H23.84L24.16 28.9601C24.48 29.2001 24.48 29.2801 24.48 29.68C24.48 30.0801 24.48 30.1601 24.16 30.4001L23.84 30.7201H20.56C17.44 30.7201 17.2 30.7201 16.96 30.5601ZM30.24 15.84C29.6 15.68 29.2 15.28 29.04 14.5601C28.72 13.28 30.56 12.32 31.76 13.12C32.16 13.36 32.48 13.84 32.48 14.24C32.48 14.8 32.08 15.5201 31.52 15.76C31.28 15.84 30.56 15.92 30.24 15.84Z" fill="#84827D"/>
<path d="M15.36 76.5599C13.608 76.3905 11.9609 75.6481 10.6736 74.4477C9.38642 73.2472 8.53102 71.6558 8.23997 69.9199C8.07997 69.2799 8.07997 18.2399 8.15997 17.0399C8.39997 14.8799 9.35997 13.0399 10.96 11.6799C11.68 11.1199 12.72 10.4799 13.52 10.2399C14.56 9.83992 15.04 9.83992 18.24 9.83992L21.36 9.75992C21.44 9.67992 21.6 9.51992 21.68 9.19992C22.56 7.35992 24.48 5.51992 26.48 4.55992C28.1844 3.77738 30.045 3.39432 31.92 3.43992C33.92 3.43992 34.48 3.51992 36 3.99992C38.72 4.87992 41.12 6.87992 42.16 9.19992L42.56 9.75992L45.76 9.83992L49.44 9.91992C52.64 10.5599 55.28 13.1999 55.76 16.4799L55.84 24.5599L55.92 32.2399C56 32.4799 56.16 32.3999 56.24 32.1599C58.1821 27.7275 60.0755 23.2739 61.92 18.7999C62.56 17.5999 64 16.4799 65.44 16.1599C66.24 15.9999 67.6 16.0799 68.24 16.3199C69.92 16.8799 71.2 18.1599 71.76 19.8399C71.92 20.3999 71.92 20.5599 71.92 21.4399C71.92 22.3199 71.92 22.5599 71.76 23.1199L68.16 31.8399C65.087 39.1439 62.0203 46.4506 58.96 53.7599C58.8 54.0799 53.36 58.3199 52.64 58.7199C51.84 59.1999 50.24 58.5599 50 57.6799L49.04 50.1599C49.04 49.7599 49.2 49.2799 51.04 44.8799L53.04 39.9999L53.12 30.0799L53.04 18.3199C52.96 16.7999 52.96 16.5599 52.8 15.9999C52.32 14.6399 51.12 13.4399 49.68 12.8799L49.12 12.7199L46.16 12.6399C42.8 12.6399 42.96 12.5599 42.96 13.2799C42.96 13.8399 42.72 14.7999 42.48 15.1199L42 15.5999C41.68 15.7599 41.6 15.8399 38.56 15.8399H35.52L35.12 15.5999C34.48 15.1999 34.24 14.3199 34.48 13.7599C34.64 13.5199 35.04 13.1199 35.28 13.0399L37.76 12.9599C40.4 12.9599 40.24 13.0399 40.08 11.9999C39.68 9.27992 37.36 7.11992 34 6.39992C32.8 6.15992 31.12 6.15992 29.92 6.39992C26.56 7.11992 24.24 9.27992 23.84 11.9999C23.68 12.9599 23.68 12.9599 24.88 12.9599C25.76 12.9599 25.92 12.9599 26.24 13.1199C26.96 13.4399 27.2 14.3199 26.8 15.0399C26.48 15.7599 26 15.8399 23.84 15.8399C22.32 15.8399 22.24 15.7599 21.92 15.5999L21.36 15.0399C21.2 14.7199 20.96 13.7599 20.96 13.1999L20.88 12.7199L17.84 12.6399L14.96 12.7199L14.32 12.8799C12.48 13.5999 11.04 15.4399 11.04 17.1199V17.6799H30.08C47.68 17.6799 49.2 17.7599 49.44 17.8399C50.24 18.3199 50.48 19.2799 49.84 19.9999C49.44 20.5599 51.12 20.4799 30.16 20.4799L11.04 20.5599C10.96 20.7199 10.88 24.3199 10.88 43.1999C10.88 63.1199 10.96 65.6799 11.04 65.7599H52.96L53.04 63.5199C53.12 61.1999 53.12 61.0399 53.6 60.6399L54.16 60.3199C54.72 60.1599 55.44 60.4799 55.76 61.1199C55.84 61.3599 55.92 61.6799 55.92 64.9599C55.92 68.9599 55.84 69.9199 55.52 70.8799C54.88 73.2799 52.88 75.3599 50.48 76.1599C49.2 76.6399 50.16 76.5599 32.4 76.5599H15.36ZM49.68 73.5199C51.52 72.7999 52.96 70.9599 52.96 69.1999L53.04 68.7199H11.04L10.96 69.0399C10.96 69.4399 11.12 70.3199 11.44 70.8799C11.92 71.9199 12.96 72.8799 13.92 73.3599C14.88 73.7599 13.92 73.7599 32.16 73.7599H49.12L49.68 73.5199ZM54.64 53.8399C56.32 52.5599 56.56 52.3199 56.56 52.1599C56.56 51.9999 56.32 51.9199 54.4 51.0399L52.08 50.1599C51.76 50.1599 51.76 50.3999 52.08 52.7199C52.2498 53.5769 52.4365 54.4304 52.64 55.2799L54.64 53.8399ZM57.6 50.0799L59.28 45.9999C62.1309 39.0656 64.9842 32.1323 67.84 25.1999C67.84 25.0399 67.76 24.9599 67.28 24.7199L63.2 23.1199C59.7068 31.44 56.2134 39.76 52.72 48.0799L52.88 48.3199C54.436 48.9519 56.01 49.5388 57.6 50.0799ZM68.8 23.0399L69.04 22.3999C69.44 21.3599 69.2 20.2399 68.32 19.5199C67.8303 19.0565 67.1776 18.805 66.5035 18.82C65.8295 18.835 65.1886 19.1152 64.72 19.5999C64.4 19.9199 63.92 20.8799 63.92 21.1199L66.24 22.1599C67.0829 22.4828 67.9367 22.7763 68.8 23.0399ZM41.2 57.6799L40.72 57.2799C40.56 57.0399 40.56 56.9599 40.56 54.3999C40.56 51.9999 40.56 51.7599 40.72 51.5199C41.04 51.0399 41.04 51.0399 44 51.0399C46.48 51.0399 46.64 51.0399 46.88 51.1999C47.36 51.5199 47.36 51.5999 47.36 54.4799C47.36 58.0799 47.6 57.8399 44 57.8399C41.68 57.8399 41.44 57.8399 41.2 57.6799ZM45.36 55.8399V53.0399H42.56L42.48 55.5999L42.72 55.8399H45.36ZM17.04 57.5199L16.64 57.0399C16.48 56.6399 16.64 56.2399 17.04 55.9199L17.28 55.7599H33.68L33.92 55.9199C34.48 56.3199 34.48 57.1199 33.92 57.5199L33.68 57.6799H25.52C17.44 57.6799 17.28 57.6799 17.04 57.5199ZM17.04 53.0399L16.64 52.5599C16.48 52.1599 16.64 51.7599 17.04 51.4399L17.28 51.2799H22.88C27.92 51.2799 28.48 51.2799 28.72 51.4399C29.36 51.7599 29.36 52.7199 28.72 53.0399C28.48 53.1999 27.92 53.1999 22.88 53.1999C17.44 53.1999 17.28 53.1999 17.04 53.0399ZM31.92 53.0399L31.52 52.5599V51.9999C31.68 51.4399 32.08 51.2799 32.88 51.2799C33.52 51.2799 33.52 51.2799 33.84 51.5199C34.08 51.8399 34.24 52.1599 34.16 52.4799L33.84 52.9599C33.52 53.1999 33.52 53.1999 32.88 53.1999C32.32 53.1999 32.16 53.1999 31.92 53.0399ZM41.2 46.4799C40.64 46.0799 40.64 45.9999 40.64 43.1999C40.64 40.7999 40.64 40.6399 40.8 40.3999C41.04 40.0799 41.44 39.8399 41.84 39.9999C42 39.9999 42.24 40.1599 42.32 40.3199C42.48 40.4799 42.56 40.4799 42.56 42.4799L42.64 44.6399L44.72 44.7199L46.72 44.7999L46.96 45.0399C47.36 45.5199 47.36 45.9199 46.96 46.3999L46.64 46.6399H44.08C41.52 46.6399 41.44 46.6399 41.2 46.4799ZM17.04 46.3199L16.64 45.8399C16.48 45.4399 16.64 45.0399 17.04 44.7199L17.28 44.5599H27.84L28.16 44.7999C28.4 45.1199 28.48 45.1199 28.48 45.5199C28.48 45.9199 28.4 45.9199 28.16 46.2399L27.84 46.4799H22.56C17.44 46.4799 17.28 46.4799 17.04 46.3199ZM17.04 41.8399L16.64 41.3599C16.48 40.9599 16.64 40.5599 17.04 40.2399C17.28 40.0799 17.36 40.0799 18.48 40.0799C19.6 40.0799 19.68 40.0799 19.92 40.2399C20.32 40.5599 20.48 40.9599 20.32 41.3599C20.08 41.9199 19.84 41.9999 18.48 41.9999C17.44 41.9999 17.28 41.9999 17.04 41.8399ZM22.88 41.8399L22.48 41.3599C22.32 40.9599 22.48 40.5599 22.88 40.2399L23.12 40.0799H31.84L32.16 40.3199C32.4 40.6399 32.48 40.6399 32.48 41.0399C32.48 41.4399 32.4 41.4399 32.16 41.7599L31.84 41.9999H27.52C23.28 41.9999 23.12 41.9999 22.88 41.8399ZM41.2 35.2799C40.64 34.8799 40.64 34.7999 40.64 31.9999C40.64 29.5999 40.64 29.4399 40.8 29.1999C41.04 28.8799 41.44 28.6399 41.84 28.7999C42 28.7999 42.24 28.9599 42.32 29.1199C42.48 29.2799 42.56 29.2799 42.56 31.2799L42.64 33.4399L44.72 33.5199L46.72 33.5999L46.96 33.8399C47.36 34.3199 47.36 34.7199 46.96 35.1999L46.64 35.4399H44.08C41.52 35.4399 41.44 35.4399 41.2 35.2799ZM17.04 35.1999L16.64 34.7199C16.48 34.3199 16.64 33.9199 17.04 33.5999L17.28 33.4399H25.68C33.28 33.4399 34 33.4399 34.24 33.5999C34.88 33.9199 34.88 34.8799 34.24 35.1999C34 35.3599 33.28 35.3599 25.68 35.3599C17.44 35.3599 17.28 35.3599 17.04 35.1999ZM17.04 30.4799L16.64 29.9999C16.48 29.5999 16.64 29.1999 17.04 28.8799C17.28 28.7199 17.28 28.7199 20.48 28.7199C24 28.7199 24 28.7199 24.24 29.1999C24.56 29.6799 24.4 30.3199 23.92 30.4799C23.76 30.6399 23.2 30.6399 20.48 30.6399C17.44 30.6399 17.28 30.6399 17.04 30.4799ZM30.24 15.7599C29.6 15.5999 29.12 15.0399 29.12 14.3199C29.12 13.9199 29.28 13.6799 29.6 13.3599C29.92 13.0399 30.16 12.9599 30.72 12.9599C31.84 12.9599 32.56 13.6799 32.32 14.6399C32.08 15.5199 31.2 15.9999 30.24 15.7599Z" fill="#7A7A7A"/>
</svg>
