<svg width="15.750000" height="15.750000" viewBox="0 0 15.75 15.75" fill="none" xmlns="http://www.w3.org/2000/svg" xmlns:xlink="http://www.w3.org/1999/xlink">
	<defs/>
	<path id="Vector" d="M4.06 14.76C5.23 15.41 6.54 15.75 7.87 15.75C12.22 15.75 15.75 12.21 15.75 7.87C15.75 3.52 12.22 0 7.87 0C3.53 0 0 3.52 0 7.87C0 9.26 0.36 10.56 1 11.7L0 15.75L4.06 14.76ZM4.5 4.39C4.59 4.3 4.7 4.24 4.82 4.21C4.94 4.17 5.07 4.17 5.19 4.2L5.44 4.25C5.7 4.3 5.9 4.47 6 4.7L6.5 5.8C6.56 5.94 6.58 6.08 6.56 6.23C6.54 6.37 6.47 6.5 6.38 6.61L6.07 6.97C6.02 7.03 5.99 7.1 5.98 7.18C5.97 7.26 5.99 7.33 6.02 7.4C6.93 9.02 8.11 9.55 8.64 9.71C8.71 9.73 8.8 9.73 8.87 9.7C8.95 9.68 9.01 9.62 9.05 9.56L9.27 9.21C9.49 8.88 9.91 8.77 10.37 9L11.29 9.46C11.64 9.62 11.8 10.04 11.67 10.4C11.21 11.76 10.01 11.59 10.01 11.59C7.37 11.52 5.3 9.08 4.4 7.83C3.99 7.24 3.74 6.53 3.82 5.8C3.89 5.08 4.23 4.63 4.5 4.39Z" fill="#FFFFFF" fill-opacity="1.000000" fill-rule="nonzero"/>
</svg>
