<!DOCTYPE svg PUBLIC "-//W3C//DTD SVG 1.1//EN" "http://www.w3.org/Graphics/SVG/1.1/DTD/svg11.dtd">
<!-- Uploaded to: SVG Repo, www.svgrepo.com, Transformed by: SVG Repo Mixer Tools -->
<svg fill="#ffffff" height="800px" width="800px" version="1.1" id="Layer_1" xmlns="http://www.w3.org/2000/svg" xmlns:xlink="http://www.w3.org/1999/xlink" viewBox="-204.8 -204.8 921.60 921.60" xml:space="preserve" stroke="#ffffff" stroke-width="0.00512" transform="rotate(0)">
<g id="SVGRepo_bgCarrier" stroke-width="0" transform="translate(0,0), scale(1)">
<path transform="translate(-204.8, -204.8), scale(57.6)" fill="#004AAD" d="M9.166.33a2.25 2.25 0 00-2.332 0l-5.25 3.182A2.25 2.25 0 00.5 5.436v5.128a2.25 2.25 0 001.084 1.924l5.25 3.182a2.25 2.25 0 002.332 0l5.25-3.182a2.25 2.25 0 001.084-1.924V5.436a2.25 2.25 0 00-1.084-1.924L9.166.33z" strokewidth="0"/>
</g>
<g id="SVGRepo_tracerCarrier" stroke-linecap="round" stroke-linejoin="round" stroke="#CCCCCC" stroke-width="1.024"/>
<g id="SVGRepo_iconCarrier"> <g> <g> <g> <path d="M448,0H64C28.645,0,0,28.645,0,64v384c0,35.355,28.645,64,64,64h384c35.355,0,64-28.645,64-64V64 C512,28.645,483.355,0,448,0z M469.333,448c0,11.791-9.542,21.333-21.333,21.333H64c-11.791,0-21.333-9.542-21.333-21.333V64 c0-11.791,9.542-21.333,21.333-21.333h384c11.791,0,21.333,9.542,21.333,21.333V448z"/> <path d="M426.667,277.333H277.333c-11.782,0-21.333,9.551-21.333,21.333v34.427l-14.774,14.183 c-8.746,8.396-8.746,22.383,0,30.779L256,392.239v34.427c0,11.782,9.551,21.333,21.333,21.333h149.333 c11.782,0,21.333-9.551,21.333-21.333v-128C448,286.885,438.449,277.333,426.667,277.333z M405.333,405.333H298.667v-22.187 c0-5.809-2.369-11.367-6.559-15.39l-5.302-5.09l5.302-5.09c4.19-4.023,6.559-9.581,6.559-15.39V320h106.667V405.333z"/> <path d="M426.667,64H277.333C265.551,64,256,73.551,256,85.333v34.427l-14.774,14.183c-8.746,8.396-8.746,22.383,0,30.779 L256,178.906v34.427c0,11.782,9.551,21.333,21.333,21.333h149.333c11.782,0,21.333-9.551,21.333-21.333v-128 C448,73.551,438.449,64,426.667,64z M405.333,192H298.667v-22.187c0-5.809-2.369-11.367-6.559-15.39l-5.302-5.09l5.302-5.09 c4.19-4.023,6.559-9.581,6.559-15.39v-22.187h106.667V192z"/> <path d="M106.667,128H192c11.782,0,21.333-9.551,21.333-21.333c0-11.782-9.551-21.333-21.333-21.333h-85.333 c-11.782,0-21.333,9.551-21.333,21.333C85.333,118.449,94.885,128,106.667,128z"/> <path d="M106.667,213.333h42.667c11.782,0,21.333-9.551,21.333-21.333s-9.551-21.333-21.333-21.333h-42.667 c-11.782,0-21.333,9.551-21.333,21.333S94.885,213.333,106.667,213.333z"/> <path d="M213.333,256H192h-85.333c-11.782,0-21.333,9.551-21.333,21.333c0,11.782,9.551,21.333,21.333,21.333H192h21.333 c11.782,0,21.333-9.551,21.333-21.333C234.667,265.551,225.115,256,213.333,256z"/> <path d="M192,341.333h-85.333c-11.782,0-21.333,9.551-21.333,21.333S94.885,384,106.667,384H192 c11.782,0,21.333-9.551,21.333-21.333S203.782,341.333,192,341.333z"/> </g> </g> </g> </g>
</svg>