<svg width="49" height="50" viewBox="0 0 49 50" fill="none" xmlns="http://www.w3.org/2000/svg">
<path d="M24.5 0.32082C11.1324 0.32082 0.294922 11.3751 0.294922 25.01C0.294922 29.9986 1.74922 34.652 4.24941 38.5332L1.13164 49.3029L12.0986 46.2041C15.7244 48.419 19.9678 49.689 24.5 49.689C37.8676 49.689 48.7051 38.6348 48.7051 24.9998C48.7051 11.3751 37.8676 0.32082 24.5 0.32082Z" fill="#25D366"/>
<path d="M37.7979 31.7868C37.768 31.4617 37.5788 31.1772 37.2899 31.0451C35.3375 30.1307 33.3752 29.2163 31.4229 28.3019C31.2038 28.2003 30.9348 28.2511 30.7754 28.4441L28.1258 31.4922C27.9166 31.736 27.5879 31.8173 27.2991 31.6954C25.9245 31.1163 24.0717 30.1409 22.1991 28.4949C19.9579 26.534 18.643 24.4309 17.9059 23.0592C18.2745 22.8052 19.2805 22.0432 19.7288 20.631C19.7288 20.6208 19.7387 20.6107 19.7387 20.6107C20.0176 19.7369 19.9579 18.792 19.6491 17.9284C19.1211 16.4958 18.0653 13.7221 17.6569 13.2953C17.5872 13.2242 17.5075 13.1531 17.5075 13.1531C17.2086 12.8788 16.8202 12.7264 16.4118 12.7061C16.2723 12.6959 16.1229 12.6959 15.9635 12.6959C15.5053 12.6857 15.0969 12.6857 14.7981 12.7264C13.9514 12.8483 13.3338 13.4274 12.9454 13.9151C12.4772 14.4942 11.9194 15.3579 11.5508 16.4958C11.5209 16.5974 11.4911 16.6888 11.4612 16.7904C11.0528 18.2332 11.1325 19.7775 11.6206 21.1999C12.0788 22.5309 12.7461 24.1159 13.7522 25.7923C15.4555 28.6473 17.3082 30.4152 18.5633 31.5836C19.9778 32.9146 21.7309 34.5504 24.51 35.9118C27.0799 37.1717 29.4108 37.6391 30.9747 37.8321C31.6122 37.8931 32.7875 37.9032 34.1323 37.3851C34.7499 37.1412 35.2678 36.8466 35.6862 36.5316C36.7918 35.729 37.5688 34.5199 37.768 33.1584C37.768 33.1483 37.768 33.1381 37.768 33.128C37.8377 32.6098 37.8278 32.1628 37.7979 31.7868Z" fill="white"/>
</svg>
