<svg width="18.000000" height="12.681000" viewBox="0 0 18 12.681" fill="none" xmlns="http://www.w3.org/2000/svg" xmlns:xlink="http://www.w3.org/1999/xlink">
	<defs/>
	<path id="Vector" d="M17.62 1.98C17.52 1.59 17.32 1.24 17.04 0.96C16.76 0.68 16.41 0.48 16.03 0.37C14.62 0 9 0 9 0C9 0 3.37 0 1.96 0.37C1.58 0.48 1.23 0.68 0.95 0.96C0.67 1.24 0.47 1.59 0.37 1.98C0 3.39 0 6.34 0 6.34C0 6.34 0 9.28 0.37 10.7C0.47 11.08 0.67 11.43 0.95 11.71C1.23 11.99 1.58 12.19 1.96 12.3C3.37 12.68 9 12.68 9 12.68C9 12.68 14.62 12.68 16.03 12.3C16.41 12.19 16.76 11.99 17.04 11.71C17.32 11.43 17.52 11.08 17.62 10.7C18 9.28 18 6.34 18 6.34C18 6.34 18 3.39 17.62 1.98ZM7.15 9.01L7.15 3.66L11.86 6.34L7.15 9.01Z" fill="#FFFFFF" fill-opacity="1.000000" fill-rule="nonzero"/>
</svg>
